<?xml version="1.0" encoding="UTF-8"?>
<svg version="1.1" xmlns="http://www.w3.org/2000/svg" width="204" height="86">
<path d="M0 0 C0.93134766 0.06123047 1.86269531 0.12246094 2.82226562 0.18554688 C5.11210961 0.33820314 7.39979615 0.5059463 9.6875 0.6875 C8.87804584 4.45035468 7.54232676 6.32232982 5 9.25 C-0.10173823 15.31138995 -4.77134304 21.64914384 -9.43823242 28.04907227 C-10.01162354 28.83467529 -10.58501465 29.62027832 -11.17578125 30.4296875 C-11.71541504 31.17444336 -12.25504883 31.91919922 -12.81103516 32.68652344 C-14.0620355 34.35371024 -15.41642906 35.94267603 -16.79296875 37.5078125 C-18.55343462 39.51254271 -18.55343462 39.51254271 -18.06494141 41.60424805 C-17.2507651 43.85842273 -16.28074419 45.32571416 -14.79296875 47.19921875 C-14.27065674 47.86671143 -13.74834473 48.5342041 -13.21020508 49.22192383 C-12.6458374 49.93243896 -12.08146973 50.6429541 -11.5 51.375 C-6.73340482 57.48825655 -2.09459144 63.66583606 2.375 70 C2.87942627 70.71051514 3.38385254 71.42103027 3.90356445 72.15307617 C4.37238037 72.82056885 4.84119629 73.48806152 5.32421875 74.17578125 C5.73373779 74.75884033 6.14325684 75.34189941 6.56518555 75.94262695 C7.75864605 77.79811144 8.73556106 79.69881747 9.6875 81.6875 C6.8220763 84.5529237 -1.09605069 83.36081806 -4.93237305 83.43066406 C-9.64905649 83.33667707 -12.50213802 83.21621178 -16.515625 80.59765625 C-19.47705197 76.86296779 -21.381583 73.37494092 -22.3125 68.6875 C-22.9725 68.6875 -23.6325 68.6875 -24.3125 68.6875 C-25.93359375 66.640625 -25.93359375 66.640625 -27.75 63.9375 C-29.87516509 60.79794725 -32.02606952 57.71144984 -34.3125 54.6875 C-34.35008423 55.90651001 -34.35008423 55.90651001 -34.38842773 57.15014648 C-34.50399118 60.80860752 -34.62689584 64.46678528 -34.75 68.125 C-34.78931641 69.40439453 -34.82863281 70.68378906 -34.86914062 72.00195312 C-34.91103516 73.21689453 -34.95292969 74.43183594 -34.99609375 75.68359375 C-35.03275146 76.80950928 -35.06940918 77.9354248 -35.10717773 79.09545898 C-35.3125 81.6875 -35.3125 81.6875 -36.3125 82.6875 C-48.84028597 83.76881322 -48.84028597 83.76881322 -53.46484375 81.74609375 C-54.9375 80.5 -54.9375 80.5 -57.3125 77.6875 C-58.611875 76.45 -58.611875 76.45 -59.9375 75.1875 C-62.3125 72.6875 -62.3125 72.6875 -64.125 70.25 C-67.08772143 66.77938347 -70.60018515 64.30954763 -74.3125 61.6875 C-74.539375 62.36425781 -74.76625 63.04101562 -75 63.73828125 C-76.66733945 67.48483269 -78.89926881 70.57576822 -81.3125 73.875 C-81.76367188 74.50341797 -82.21484375 75.13183594 -82.6796875 75.77929688 C-84.44953023 78.22723024 -86.17314331 80.54814331 -88.3125 82.6875 C-90.28369141 82.91455078 -90.28369141 82.91455078 -92.6640625 82.8828125 C-93.94023438 82.87314453 -93.94023438 82.87314453 -95.2421875 82.86328125 C-96.57636719 82.83814453 -96.57636719 82.83814453 -97.9375 82.8125 C-98.8346875 82.80347656 -99.731875 82.79445313 -100.65625 82.78515625 C-102.87526586 82.7615497 -105.09375077 82.7286231 -107.3125 82.6875 C-106.43252004 78.57668108 -104.46532469 75.5604183 -102.125 72.125 C-101.68865234 71.47732666 -101.25230469 70.82965332 -100.80273438 70.16235352 C-95.96280176 63.05265361 -90.82680899 56.16108892 -85.69921875 49.2578125 C-79.71065275 41.19390151 -73.88709788 33.01844378 -68.21459961 24.72924805 C-67.2854205 23.3761704 -66.35009078 22.02729445 -65.40844727 20.68286133 C-63.10038672 17.37632692 -60.92270368 14.06478249 -58.921875 10.5625 C-53.44133307 1.3525549 -53.44133307 1.3525549 -49.41503906 0.09472656 C-44.96945059 -0.49647569 -40.73158155 -0.0549057 -36.3125 0.6875 C-35.23332774 3.92501678 -35.19824399 6.26501771 -35.21484375 9.66796875 C-35.21967773 11.41303711 -35.21967773 11.41303711 -35.22460938 13.19335938 C-35.23717773 15.01577148 -35.23717773 15.01577148 -35.25 16.875 C-35.25451172 18.10154297 -35.25902344 19.32808594 -35.26367188 20.59179688 C-35.27546935 23.62374668 -35.29193079 26.65559906 -35.3125 29.6875 C-33.85068347 27.81513074 -32.39247483 25.94018048 -30.9375 24.0625 C-30.48995361 23.48580566 -30.04240723 22.90911133 -29.58129883 22.31494141 C-27.17896752 19.19547748 -24.84088911 16.04863921 -22.59765625 12.8125 C-21.94385986 11.87204834 -21.94385986 11.87204834 -21.27685547 10.91259766 C-20.44313041 9.70457308 -19.61752594 8.49089213 -18.80126953 7.27099609 C-13.40007381 -0.54431897 -8.88179271 -0.70928804 0 0 Z M-54.3125 32.6875 C-56.6049432 35.70001661 -58.68385803 38.87030879 -60.8125 42 C-61.41964844 42.88107422 -62.02679688 43.76214844 -62.65234375 44.66992188 C-63.52052734 45.94125977 -63.52052734 45.94125977 -64.40625 47.23828125 C-64.93927734 48.01856689 -65.47230469 48.79885254 -66.02148438 49.6027832 C-67.4607506 51.7478731 -67.4607506 51.7478731 -68.3125 54.6875 C-67.45785156 54.73648438 -66.60320312 54.78546875 -65.72265625 54.8359375 C-64.61792969 54.91070312 -63.51320313 54.98546875 -62.375 55.0625 C-61.27285156 55.13210937 -60.17070313 55.20171875 -59.03515625 55.2734375 C-58.13667969 55.41007812 -57.23820312 55.54671875 -56.3125 55.6875 C-55.9825 56.3475 -55.6525 57.0075 -55.3125 57.6875 C-54.6525 57.6875 -53.9925 57.6875 -53.3125 57.6875 C-53.3125 49.4375 -53.3125 41.1875 -53.3125 32.6875 C-53.6425 32.6875 -53.9725 32.6875 -54.3125 32.6875 Z " fill="#072363" transform="translate(118.3125,1.3125)"/>
<path d="M0 0 C0.74411133 0.03915527 1.48822266 0.07831055 2.25488281 0.11865234 C7.50251109 0.44001109 7.50251109 0.44001109 8.625 1.5625 C8.71226223 3.34321246 8.73199041 5.1273314 8.72265625 6.91015625 C8.71782227 8.52954102 8.71782227 8.52954102 8.71289062 10.18164062 C8.70032227 11.88610352 8.70032227 11.88610352 8.6875 13.625 C8.68298828 14.76517578 8.67847656 15.90535156 8.67382812 17.08007812 C8.66199747 19.90760351 8.6455141 22.7350264 8.625 25.5625 C6.33454632 25.78377098 4.04255236 25.9891504 1.75 26.1875 C0.47382813 26.30351562 -0.80234375 26.41953125 -2.1171875 26.5390625 C-3.19226563 26.54679687 -4.26734375 26.55453125 -5.375 26.5625 C-7.375 24.5625 -7.375 24.5625 -7.5 20.9375 C-7.45875 19.82375 -7.4175 18.71 -7.375 17.5625 C-11.35927467 17.60700846 -15.34223428 17.67720315 -19.32568359 17.77001953 C-21.3379854 17.81173272 -23.35066395 17.83378531 -25.36328125 17.85546875 C-33.49779606 18.05985354 -40.2623781 18.24513719 -46.1796875 24.45703125 C-50.85176262 32.82925346 -52.67772813 40.17345233 -50.1875 49.625 C-48.11655156 55.91419364 -45.14500848 59.91146394 -39.1875 62.9375 C-32.90390885 65.43629914 -27.19098719 65.38787556 -20.75 63.5 C-17.15075672 61.43376775 -14.30009041 59.09578153 -11.26953125 56.28125 C-10.64433594 55.7140625 -10.01914063 55.146875 -9.375 54.5625 C-8.76140625 54.00046875 -8.1478125 53.4384375 -7.515625 52.859375 C-4.66030523 51.12950974 -2.62649685 51.23036873 0.6875 51.3125 C2.25177734 51.33570312 2.25177734 51.33570312 3.84765625 51.359375 C6.625 51.5625 6.625 51.5625 9.625 52.5625 C8.70506444 60.58245108 4.23777143 67.50482833 -1.6875 72.9375 C-12.35542964 81.21351717 -24.10290357 83.73702181 -37.375 82.5625 C-44.69891733 80.90140535 -51.67098111 77.49189904 -57.375 72.5625 C-57.375 71.9025 -57.375 71.2425 -57.375 70.5625 C-58.035 70.5625 -58.695 70.5625 -59.375 70.5625 C-59.375 69.9025 -59.375 69.2425 -59.375 68.5625 C-60.035 68.5625 -60.695 68.5625 -61.375 68.5625 C-62.77734375 66.875 -62.77734375 66.875 -64.3125 64.5625 C-64.81652344 63.82 -65.32054688 63.0775 -65.83984375 62.3125 C-69.52665501 55.70813582 -70.93570849 49.86724832 -70.875 42.3125 C-70.86641968 41.06351929 -70.86641968 41.06351929 -70.85766602 39.78930664 C-70.51136875 27.75518533 -64.97065106 17.31831036 -56.60546875 8.75 C-41.76719772 -3.74538613 -18.07890921 -0.98660714 0 0 Z " fill="#051D5A" transform="translate(184.375,1.4375)"/>
<path d="M0 0 C2.29935413 0.22310565 4.59677391 0.49225802 6.875 0.875 C7.89473129 3.93419388 7.99033602 5.99918025 7.97265625 9.19921875 C7.96782227 10.74125977 7.96782227 10.74125977 7.96289062 12.31445312 C7.95032227 13.92223633 7.95032227 13.92223633 7.9375 15.5625 C7.93298828 16.64595703 7.92847656 17.72941406 7.92382812 18.84570312 C7.91203743 21.52219085 7.89558063 24.19856777 7.875 26.875 C7.215 26.875 6.555 26.875 5.875 26.875 C5.875 29.185 5.875 31.495 5.875 33.875 C5.545 33.875 5.215 33.875 4.875 33.875 C4.545 24.635 4.215 15.395 3.875 5.875 C-2.88253409 5.08037873 -2.88253409 5.08037873 -5.8125 8.375 C-6.575625 9.2 -7.33875 10.025 -8.125 10.875 C-9.445 10.875 -10.765 10.875 -12.125 10.875 C-12.269375 11.65875 -12.41375 12.4425 -12.5625 13.25 C-13.125 15.875 -13.125 15.875 -14.125 17.875 C-15.115 17.875 -16.105 17.875 -17.125 17.875 C-16.465 18.205 -15.805 18.535 -15.125 18.875 C-15.125 19.535 -15.125 20.195 -15.125 20.875 C-15.785 20.875 -16.445 20.875 -17.125 20.875 C-17.393125 21.57625 -17.66125 22.2775 -17.9375 23 C-19.1931449 26.0399824 -20.62735123 28.9477774 -22.125 31.875 C-21.135 31.545 -20.145 31.215 -19.125 30.875 C-16.9375 31.8125 -16.9375 31.8125 -15.125 32.875 C-14.63 31.39 -14.63 31.39 -14.125 29.875 C-14.125 30.865 -14.125 31.855 -14.125 32.875 C-13.361875 32.38 -12.59875 31.885 -11.8125 31.375 C-9.125 29.875 -9.125 29.875 -6.125 29.875 C-6.29902344 30.78378906 -6.47304687 31.69257812 -6.65234375 32.62890625 C-7.42276175 38.02183225 -6.98015822 43.39327708 -6.6875 48.8125 C-6.60918945 50.41061523 -6.60918945 50.41061523 -6.52929688 52.04101562 C-6.40046928 54.65270229 -6.26554502 57.2639221 -6.125 59.875 C-8.08691406 58.70776367 -8.08691406 58.70776367 -10.125 56.875 C-10.67089844 54.4230957 -10.67089844 54.4230957 -10.734375 51.55078125 C-10.76660156 50.52275391 -10.79882812 49.49472656 -10.83203125 48.43554688 C-10.84621094 47.36369141 -10.86039063 46.29183594 -10.875 45.1875 C-10.90464844 44.10404297 -10.93429688 43.02058594 -10.96484375 41.90429688 C-11.03558844 39.22778941 -11.08826156 36.55215521 -11.125 33.875 C-11.54910156 34.55304687 -11.97320312 35.23109375 -12.41015625 35.9296875 C-16.4746901 42.37934341 -20.7109711 48.65932665 -25.125 54.875 C-21.165 54.875 -17.205 54.875 -13.125 54.875 C-12.63 57.35 -12.63 57.35 -12.125 59.875 C-9.155 60.37 -9.155 60.37 -6.125 60.875 C-6.62 61.865 -6.62 61.865 -7.125 62.875 C-11.40235653 63.24163056 -13.6220711 62.30758951 -17.125 59.875 C-17.455 59.545 -17.785 59.215 -18.125 58.875 C-20.17896726 59.28429986 -20.17896726 59.28429986 -22.125 59.875 C-22.45925735 62.24874861 -22.45925735 62.24874861 -22.125 64.875 C-20.1772077 66.8227923 -18.73945472 67.72604128 -16.0625 68.375 C-13.59881155 69.01079057 -12.63298502 69.83922022 -11.125 71.875 C-11.125 73.195 -11.125 74.515 -11.125 75.875 C-9.294918 78.13180034 -9.294918 78.13180034 -6.59375 78.10546875 C-5.6140625 78.09128906 -4.634375 78.07710938 -3.625 78.0625 C-2.6453125 78.05605469 -1.665625 78.04960938 -0.65625 78.04296875 C1.86869384 78.03940726 1.86869384 78.03940726 3.875 76.875 C4.205 67.965 4.535 59.055 4.875 49.875 C5.205 49.875 5.535 49.875 5.875 49.875 C5.875 60.435 5.875 70.995 5.875 81.875 C-10.125 81.875 -10.125 81.875 -14.3125 78.1875 C-15.27766798 76.76842873 -16.21811478 75.33200779 -17.125 73.875 C-23.48669147 67.07144527 -23.48669147 67.07144527 -31.125 61.875 C-31.351875 62.55175781 -31.57875 63.22851562 -31.8125 63.92578125 C-33.47983945 67.67233269 -35.71176881 70.76326822 -38.125 74.0625 C-38.57617188 74.69091797 -39.02734375 75.31933594 -39.4921875 75.96679688 C-41.26203023 78.41473024 -42.98564331 80.73564331 -45.125 82.875 C-47.09619141 83.10205078 -47.09619141 83.10205078 -49.4765625 83.0703125 C-50.75273438 83.06064453 -50.75273438 83.06064453 -52.0546875 83.05078125 C-53.38886719 83.02564453 -53.38886719 83.02564453 -54.75 83 C-55.6471875 82.99097656 -56.544375 82.98195313 -57.46875 82.97265625 C-59.68776586 82.9490497 -61.90625077 82.9161231 -64.125 82.875 C-63.24502004 78.76418108 -61.27782469 75.7479183 -58.9375 72.3125 C-58.50115234 71.66482666 -58.06480469 71.01715332 -57.61523438 70.34985352 C-52.77530176 63.24015361 -47.63930899 56.34858892 -42.51171875 49.4453125 C-36.52315275 41.38140151 -30.69959788 33.20594378 -25.02709961 24.91674805 C-24.0979205 23.5636704 -23.16259078 22.21479445 -22.22094727 20.87036133 C-19.91288672 17.56382692 -17.73520368 14.25228249 -15.734375 10.75 C-11.60471918 3.81019297 -8.56088652 -0.30531552 0 0 Z " fill="#081E5D" transform="translate(75.125,1.125)"/>
<path d="M0 0 C2 1 2 1 2 1 Z M-4.25 0.875 C-3.45078125 0.89304687 -2.6515625 0.91109375 -1.828125 0.9296875 C-1.22484375 0.95289063 -0.6215625 0.97609375 0 1 C0.66 2.32 1.32 3.64 2 5 C0.35 5.66 -1.3 6.32 -3 7 C-2.01 7.99 -1.02 8.98 0 10 C-1.670625 10.12375 -1.670625 10.12375 -3.375 10.25 C-7.00337943 10.57586194 -7.00337943 10.57586194 -8.3125 12.8125 C-8.539375 13.534375 -8.76625 14.25625 -9 15 C-9.556875 16.0209375 -9.556875 16.0209375 -10.125 17.0625 C-11.20579336 19.10136548 -11.20579336 19.10136548 -11 22 C-11.31436452 23.91986905 -11.65028018 25.83625543 -12 27.75 C-12.78365201 32.28202947 -13.09745004 36.41984806 -13 41 C-13.33 41.99 -13.66 42.98 -14 44 C-13.34 44 -12.68 44 -12 44 C-11.7525 44.969375 -11.505 45.93875 -11.25 46.9375 C-10.8375 47.948125 -10.425 48.95875 -10 50 C-7.96756452 50.96877057 -7.96756452 50.96877057 -6 51 C-6.45375 50.46375 -6.9075 49.9275 -7.375 49.375 C-11.99575482 42.62158911 -11.69205415 34.86346525 -11 27 C-9.40436264 20.13694611 -6.80377354 15.95711833 -1 12 C-0.34 12.33 0.32 12.66 1 13 C0.2575 13.495 -0.485 13.99 -1.25 14.5 C-6.81801583 19.56183257 -8.67475152 25.85308193 -9.25 33.1875 C-8.74410292 40.90243045 -6.84637687 47.66200373 -1 53 C5.05045213 56.83394986 10.92449243 57.94340101 18 57 C23.46730512 55.39751402 27.00786955 52.52425964 31.10546875 48.71875 C31.73066406 48.1515625 32.35585937 47.584375 33 47 C33.62003906 46.43667969 34.24007812 45.87335937 34.87890625 45.29296875 C37.64829323 43.60481573 39.53448224 43.69766008 42.75 43.8125 C44.22726563 43.85310547 44.22726563 43.85310547 45.734375 43.89453125 C46.48203125 43.92933594 47.2296875 43.96414062 48 44 C48 44.66 48 45.32 48 46 C42.06 46.495 42.06 46.495 36 47 C36.33 47 36.66 47 37 47 C39.66666667 47 42.33333333 47 45 47 C45.83237679 50.32950715 46.44008983 52.81122966 45 56 C40.66666667 60 40.66666667 60 38 60 C37.67 60.99 37.34 61.98 37 63 C36.01 63 35.02 63 34 63 C32.31201173 64.43750191 32.31201173 64.43750191 31 66 C30.01 65.505 30.01 65.505 29 65 C29 65.66 29 66.32 29 67 C28.34 67 27.68 67 27 67 C26.67 68.65 26.34 70.3 26 72 C17.44381126 74.85206291 6.04987001 73.81309632 -2 70 C-2.33 69.01 -2.66 68.02 -3 67 C-4.485 66.505 -4.485 66.505 -6 66 C-6 65.34 -6 64.68 -6 64 C-7.010625 64 -8.02125 64 -9.0625 64 C-13.70261046 63.37627843 -15.76326865 60.47602778 -18.6171875 57.0078125 C-20 55 -20 55 -21 52 C-21.66 51.01 -22.32 50.02 -23 49 C-23 48.34 -23 47.68 -23 47 C-23.66 47 -24.32 47 -25 47 C-27.36975208 41.51994831 -27.65414139 35.88727255 -27 30 C-26.34 29.34 -25.68 28.68 -25 28 C-24.53929683 26.05846521 -24.0799523 24.11657825 -23.6328125 22.171875 C-22.62237502 18.70395377 -20.9731269 16.02135057 -19 13 C-18.34 12.67 -17.68 12.34 -17 12 C-17 11.01 -17 10.02 -17 9 C-16.34 9 -15.68 9 -15 9 C-14.7525 8.05125 -14.505 7.1025 -14.25 6.125 C-13 3 -13 3 -11.21875 1.8125 C-8.73584421 0.90326689 -6.88420851 0.79752328 -4.25 0.875 Z " fill="#072160" transform="translate(142,9)"/>
<path d="M0 0 C2 1 2 1 2 1 Z M-4.25 0.875 C-3.45078125 0.89304687 -2.6515625 0.91109375 -1.828125 0.9296875 C-1.22484375 0.95289063 -0.6215625 0.97609375 0 1 C0.66 2.32 1.32 3.64 2 5 C0.35 5.66 -1.3 6.32 -3 7 C-2.01 7.99 -1.02 8.98 0 10 C-1.670625 10.12375 -1.670625 10.12375 -3.375 10.25 C-7.00337943 10.57586194 -7.00337943 10.57586194 -8.3125 12.8125 C-8.539375 13.534375 -8.76625 14.25625 -9 15 C-9.556875 16.0209375 -9.556875 16.0209375 -10.125 17.0625 C-11.20579336 19.10136548 -11.20579336 19.10136548 -11 22 C-11.31436452 23.91986905 -11.65028018 25.83625543 -12 27.75 C-12.78365201 32.28202947 -13.09745004 36.41984806 -13 41 C-13.33 41.99 -13.66 42.98 -14 44 C-13.34 44 -12.68 44 -12 44 C-11.7525 44.94875 -11.505 45.8975 -11.25 46.875 C-10.338822 50.08838835 -10.338822 50.08838835 -7.9375 51.1875 C-7.298125 51.455625 -6.65875 51.72375 -6 52 C-5.67 52.99 -5.34 53.98 -5 55 C-4.34 55.33 -3.68 55.66 -3 56 C-3.66 56 -4.32 56 -5 56 C-5 56.66 -5 57.32 -5 58 C-3.68 58.33 -2.36 58.66 -1 59 C-1 59.66 -1 60.32 -1 61 C-1.99 61 -2.98 61 -4 61 C-4.33 61.99 -4.66 62.98 -5 64 C-11.8206278 64 -11.8206278 64 -15.0546875 61.2578125 C-17.71597491 58.24315913 -19.71913721 55.84258837 -21 52 C-21.66 51.01 -22.32 50.02 -23 49 C-23 48.34 -23 47.68 -23 47 C-23.66 47 -24.32 47 -25 47 C-27.36975208 41.51994831 -27.65414139 35.88727255 -27 30 C-26.34 29.34 -25.68 28.68 -25 28 C-24.53929683 26.05846521 -24.0799523 24.11657825 -23.6328125 22.171875 C-22.62237502 18.70395377 -20.9731269 16.02135057 -19 13 C-18.34 12.67 -17.68 12.34 -17 12 C-17 11.01 -17 10.02 -17 9 C-16.34 9 -15.68 9 -15 9 C-14.7525 8.05125 -14.505 7.1025 -14.25 6.125 C-13 3 -13 3 -11.21875 1.8125 C-8.73584421 0.90326689 -6.88420851 0.79752328 -4.25 0.875 Z " fill="#062164" transform="translate(142,9)"/>
<path d="M0 0 C2.29935413 0.22310565 4.59677391 0.49225802 6.875 0.875 C7.89473129 3.93419388 7.99033602 5.99918025 7.97265625 9.19921875 C7.96782227 10.74125977 7.96782227 10.74125977 7.96289062 12.31445312 C7.95032227 13.92223633 7.95032227 13.92223633 7.9375 15.5625 C7.93298828 16.64595703 7.92847656 17.72941406 7.92382812 18.84570312 C7.91203743 21.52219085 7.89558063 24.19856777 7.875 26.875 C7.215 26.875 6.555 26.875 5.875 26.875 C5.875 29.185 5.875 31.495 5.875 33.875 C5.545 33.875 5.215 33.875 4.875 33.875 C4.545 24.635 4.215 15.395 3.875 5.875 C-2.88253409 5.08037873 -2.88253409 5.08037873 -5.8125 8.375 C-6.575625 9.2 -7.33875 10.025 -8.125 10.875 C-9.445 10.875 -10.765 10.875 -12.125 10.875 C-12.269375 11.65875 -12.41375 12.4425 -12.5625 13.25 C-13.125 15.875 -13.125 15.875 -14.125 17.875 C-15.115 17.875 -16.105 17.875 -17.125 17.875 C-16.465 18.205 -15.805 18.535 -15.125 18.875 C-15.125 19.535 -15.125 20.195 -15.125 20.875 C-15.785 20.875 -16.445 20.875 -17.125 20.875 C-17.393125 21.57625 -17.66125 22.2775 -17.9375 23 C-19.1931449 26.0399824 -20.62735123 28.9477774 -22.125 31.875 C-21.135 31.545 -20.145 31.215 -19.125 30.875 C-16.9375 31.8125 -16.9375 31.8125 -15.125 32.875 C-14.63 31.39 -14.63 31.39 -14.125 29.875 C-14.125 30.865 -14.125 31.855 -14.125 32.875 C-13.361875 32.38 -12.59875 31.885 -11.8125 31.375 C-9.125 29.875 -9.125 29.875 -6.125 29.875 C-6.29902344 30.78378906 -6.47304687 31.69257812 -6.65234375 32.62890625 C-7.42276175 38.02183225 -6.98015822 43.39327708 -6.6875 48.8125 C-6.60918945 50.41061523 -6.60918945 50.41061523 -6.52929688 52.04101562 C-6.40046928 54.65270229 -6.26554502 57.2639221 -6.125 59.875 C-8.08691406 58.70776367 -8.08691406 58.70776367 -10.125 56.875 C-10.67089844 54.4230957 -10.67089844 54.4230957 -10.734375 51.55078125 C-10.76660156 50.52275391 -10.79882812 49.49472656 -10.83203125 48.43554688 C-10.84621094 47.36369141 -10.86039063 46.29183594 -10.875 45.1875 C-10.90464844 44.10404297 -10.93429688 43.02058594 -10.96484375 41.90429688 C-11.03558844 39.22778941 -11.08826156 36.55215521 -11.125 33.875 C-11.54910156 34.55304687 -11.97320312 35.23109375 -12.41015625 35.9296875 C-16.4746901 42.37934341 -20.7109711 48.65932665 -25.125 54.875 C-21.165 54.875 -17.205 54.875 -13.125 54.875 C-13.125 55.865 -13.125 56.855 -13.125 57.875 C-13.455 57.545 -13.785 57.215 -14.125 56.875 C-16.30792774 56.64018307 -18.49703174 56.46136677 -20.6875 56.3125 C-21.88503906 56.22871094 -23.08257812 56.14492188 -24.31640625 56.05859375 C-25.70666016 55.96771484 -25.70666016 55.96771484 -27.125 55.875 C-28.26405625 51.263017 -27.63076582 48.39229745 -26.125 43.875 C-26.785 43.215 -27.445 42.555 -28.125 41.875 C-26.475 41.215 -24.825 40.555 -23.125 39.875 C-23.125 40.865 -23.125 41.855 -23.125 42.875 C-22.795 41.555 -22.465 40.235 -22.125 38.875 C-22.785 38.875 -23.445 38.875 -24.125 38.875 C-24.125 36.895 -24.125 34.915 -24.125 32.875 C-24.785 32.875 -25.445 32.875 -26.125 32.875 C-25.795 33.865 -25.465 34.855 -25.125 35.875 C-25.90875 36.308125 -26.6925 36.74125 -27.5 37.1875 C-30.34198375 38.76720247 -30.34198375 38.76720247 -32.125 41.875 C-32.785 41.875 -33.445 41.875 -34.125 41.875 C-34.455 42.865 -34.785 43.855 -35.125 44.875 C-36.2078125 45.94234375 -36.2078125 45.94234375 -37.3125 47.03125 C-40.76100305 50.51806975 -43.37333377 54.33130774 -46.125 58.375 C-49.48250342 63.30899615 -52.73689232 67.8095473 -57.125 71.875 C-55.65011914 67.60101729 -53.40179404 64.1773167 -50.75 60.5625 C-50.30938232 59.95277344 -49.86876465 59.34304687 -49.41479492 58.71484375 C-46.62398529 54.87070491 -43.76952764 51.07775045 -40.89550781 47.2956543 C-35.5482113 40.25158503 -30.46623355 33.06820088 -25.5 25.75 C-24.53574097 24.34790283 -24.53574097 24.34790283 -23.55200195 22.91748047 C-20.72734302 18.79696351 -17.97230069 14.68843843 -15.4765625 10.359375 C-11.38450897 3.50034564 -8.42959881 -0.24619155 0 0 Z " fill="#132557" transform="translate(75.125,1.125)"/>
<path d="M0 0 C0 0.33 0 0.66 0 1 C-13.2 1.33 -26.4 1.66 -40 2 C-40 2.33 -40 2.66 -40 3 C-43.07617188 3.29296875 -43.07617188 3.29296875 -46.15234375 3.5859375 C-46.76207031 3.72257813 -47.37179688 3.85921875 -48 4 C-48.33 4.66 -48.66 5.32 -49 6 C-52.5 6.5 -52.5 6.5 -56 7 C-56.33 7.66 -56.66 8.32 -57 9 C-58.64551962 9.71727778 -60.31422289 10.38325228 -62 11 C-62.99 11.495 -62.99 11.495 -64 12 C-64.309375 13.155 -64.61875 14.31 -64.9375 15.5 C-65.288125 16.655 -65.63875 17.81 -66 19 C-66.99 19.33 -67.98 19.66 -69 20 C-73.32515097 27.06906395 -74.35042769 35.42694971 -74.7890625 43.53125 C-75 46 -75 46 -76 48 C-75.71887936 50.00800456 -75.38932033 52.01014051 -75 54 C-74.34 54 -73.68 54 -73 54 C-69.09849521 60.54445964 -69.09849521 60.54445964 -68.5 63.3125 C-68.14759368 65.21072575 -68.14759368 65.21072575 -66.0625 66.125 C-65.381875 66.41375 -64.70125 66.7025 -64 67 C-63.34 67.66 -62.68 68.32 -62 69 C-61.05125 69.268125 -60.1025 69.53625 -59.125 69.8125 C-56 71 -56 71 -54.1875 73.4375 C-50.66312979 77.56604796 -45.81649471 78.73401443 -40.48461914 79.23754883 C-37.96199179 79.29303148 -35.45945434 79.26380428 -32.9375 79.1875 C-31.6390918 79.16719727 -31.6390918 79.16719727 -30.31445312 79.14648438 C-28.20935826 79.1115933 -26.10459026 79.05780665 -24 79 C-24 77.02 -24 75.04 -24 73 C-23.01 73.33 -22.02 73.66 -21 74 C-21 73.34 -21 72.68 -21 72 C-20.01 72 -19.02 72 -18 72 C-17.01 70.515 -17.01 70.515 -16 69 C-15.01 69 -14.02 69 -13 69 C-11.29115995 67.37660195 -9.62553283 65.70680947 -8 64 C-7.01 63.34 -6.02 62.68 -5 62 C-4.63702064 60.02252878 -4.63702064 60.02252878 -4.8125 57.875 C-4.874375 56.59625 -4.93625 55.3175 -5 54 C-6.258125 54.165 -7.51625 54.33 -8.8125 54.5 C-11.26456585 54.82158241 -13.51650694 55 -16 55 C-14 53 -14 53 -11.1796875 52.8046875 C-10.08914062 52.82789063 -8.99859375 52.85109375 -7.875 52.875 C-6.77929688 52.89304688 -5.68359375 52.91109375 -4.5546875 52.9296875 C-3.71164063 52.95289063 -2.86859375 52.97609375 -2 53 C-1.505 52.01 -1.505 52.01 -1 51 C0.485 51.495 0.485 51.495 2 52 C1.08006444 60.01995108 -3.38722857 66.94232833 -9.3125 72.375 C-19.98042964 80.65101717 -31.72790357 83.17452181 -45 82 C-52.32391733 80.33890535 -59.29598111 76.92939904 -65 72 C-65 71.34 -65 70.68 -65 70 C-65.66 70 -66.32 70 -67 70 C-67 69.34 -67 68.68 -67 68 C-67.66 68 -68.32 68 -69 68 C-70.40234375 66.3125 -70.40234375 66.3125 -71.9375 64 C-72.44152344 63.2575 -72.94554688 62.515 -73.46484375 61.75 C-77.15165501 55.14563582 -78.56070849 49.30474832 -78.5 41.75 C-78.49141968 40.50101929 -78.49141968 40.50101929 -78.48266602 39.22680664 C-78.13636875 27.19268533 -72.59565106 16.75581036 -64.23046875 8.1875 C-47.68369353 -5.7466265 -20.06153164 -1.37508662 0 0 Z " fill="#131C49" transform="translate(192,2)"/>
<path d="M0 0 C1.33901367 0.07250977 1.33901367 0.07250977 2.70507812 0.14648438 C4.09823242 0.2305957 4.09823242 0.2305957 5.51953125 0.31640625 C6.93008789 0.3947168 6.93008789 0.3947168 8.36914062 0.47460938 C10.69044626 0.60422543 13.01131534 0.73918806 15.33203125 0.87890625 C14.50522638 4.79796131 12.95417304 6.81974083 10.33203125 9.87890625 C5.42583367 15.71436758 0.85985895 21.74546588 -3.66796875 27.87890625 C-4.32796875 27.21890625 -4.98796875 26.55890625 -5.66796875 25.87890625 C-5.29296875 22.75390625 -5.29296875 22.75390625 -4.66796875 19.87890625 C-4.00796875 19.87890625 -3.34796875 19.87890625 -2.66796875 19.87890625 C-2.99796875 19.21890625 -3.32796875 18.55890625 -3.66796875 17.87890625 C-2.67796875 17.87890625 -1.68796875 17.87890625 -0.66796875 17.87890625 C-0.66796875 16.55890625 -0.66796875 15.23890625 -0.66796875 13.87890625 C0.11578125 13.61078125 0.89953125 13.34265625 1.70703125 13.06640625 C4.61318048 12.03076193 4.61318048 12.03076193 6.33203125 8.87890625 C6.99203125 8.87890625 7.65203125 8.87890625 8.33203125 8.87890625 C8.33203125 7.55890625 8.33203125 6.23890625 8.33203125 4.87890625 C3.71203125 4.87890625 -0.90796875 4.87890625 -5.66796875 4.87890625 C-6.32796875 6.19890625 -6.98796875 7.51890625 -7.66796875 8.87890625 C-8.65796875 8.87890625 -9.64796875 8.87890625 -10.66796875 8.87890625 C-10.33796875 11.18890625 -10.00796875 13.49890625 -9.66796875 15.87890625 C-10.65796875 16.53890625 -11.64796875 17.19890625 -12.66796875 17.87890625 C-12.66796875 16.88890625 -12.66796875 15.89890625 -12.66796875 14.87890625 C-13.32796875 14.87890625 -13.98796875 14.87890625 -14.66796875 14.87890625 C-14.33796875 16.52890625 -14.00796875 18.17890625 -13.66796875 19.87890625 C-14.32796875 19.87890625 -14.98796875 19.87890625 -15.66796875 19.87890625 C-15.66796875 20.53890625 -15.66796875 21.19890625 -15.66796875 21.87890625 C-16.65796875 21.87890625 -17.64796875 21.87890625 -18.66796875 21.87890625 C-18.33796875 23.19890625 -18.00796875 24.51890625 -17.66796875 25.87890625 C-19.31796875 26.20890625 -20.96796875 26.53890625 -22.66796875 26.87890625 C-22.00796875 25.22890625 -21.34796875 23.57890625 -20.66796875 21.87890625 C-21.32796875 21.54890625 -21.98796875 21.21890625 -22.66796875 20.87890625 C-20.73534201 18.10464451 -18.79603142 15.33512138 -16.85546875 12.56640625 C-16.30826172 11.78072266 -15.76105469 10.99503906 -15.19726562 10.18554688 C-14.66552734 9.42822266 -14.13378906 8.67089844 -13.5859375 7.890625 C-13.09891357 7.19412842 -12.61188965 6.49763184 -12.11010742 5.7800293 C-8.56640398 1.1084839 -5.94469546 -0.34077872 0 0 Z " fill="#17214C" transform="translate(112.66796875,1.12109375)"/>
<path d="M0 0 C1.37163873 0.0265051 2.74300063 0.0740941 4.11328125 0.140625 C5.16612305 0.16769531 5.16612305 0.16769531 6.24023438 0.1953125 C7.96933561 0.24236287 9.6977333 0.31410627 11.42578125 0.390625 C12.44551254 3.44981888 12.54111727 5.51480525 12.5234375 8.71484375 C12.52021484 9.74287109 12.51699219 10.77089844 12.51367188 11.83007812 C12.50110352 13.43786133 12.50110352 13.43786133 12.48828125 15.078125 C12.48376953 16.16158203 12.47925781 17.24503906 12.47460938 18.36132812 C12.46281868 21.03781585 12.44636188 23.71419277 12.42578125 26.390625 C11.76578125 26.390625 11.10578125 26.390625 10.42578125 26.390625 C10.42578125 28.700625 10.42578125 31.010625 10.42578125 33.390625 C10.09578125 33.390625 9.76578125 33.390625 9.42578125 33.390625 C8.93078125 19.530625 8.93078125 19.530625 8.42578125 5.390625 C1.66824716 4.59600373 1.66824716 4.59600373 -1.26171875 7.890625 C-2.02484375 8.715625 -2.78796875 9.540625 -3.57421875 10.390625 C-4.89421875 10.390625 -6.21421875 10.390625 -7.57421875 10.390625 C-7.71859375 11.174375 -7.86296875 11.958125 -8.01171875 12.765625 C-8.57421875 15.390625 -8.57421875 15.390625 -9.57421875 17.390625 C-10.56421875 17.390625 -11.55421875 17.390625 -12.57421875 17.390625 C-11.91421875 17.720625 -11.25421875 18.050625 -10.57421875 18.390625 C-10.57421875 19.050625 -10.57421875 19.710625 -10.57421875 20.390625 C-11.23421875 20.390625 -11.89421875 20.390625 -12.57421875 20.390625 C-12.82171875 21.195 -13.06921875 21.999375 -13.32421875 22.828125 C-14.57421875 25.390625 -14.57421875 25.390625 -16.69921875 26.203125 C-17.31796875 26.265 -17.93671875 26.326875 -18.57421875 26.390625 C-18.90421875 28.040625 -19.23421875 29.690625 -19.57421875 31.390625 C-20.56421875 31.060625 -21.55421875 30.730625 -22.57421875 30.390625 C-19.95536244 23.82657903 -16.6794063 18.26970322 -12.51171875 12.578125 C-11.98255859 11.84142578 -11.45339844 11.10472656 -10.90820312 10.34570312 C-9.47354313 8.3530198 -8.03036424 6.36765129 -6.57421875 4.390625 C-6.0956543 3.66045166 -5.61708984 2.93027832 -5.12402344 2.17797852 C-3.57421875 0.390625 -3.57421875 0.390625 0 0 Z " fill="#1E2852" transform="translate(70.57421875,1.609375)"/>
<path d="M0 0 C0 0.33 0 0.66 0 1 C-13.2 1.33 -26.4 1.66 -40 2 C-40 2.33 -40 2.66 -40 3 C-43.07617188 3.29296875 -43.07617188 3.29296875 -46.15234375 3.5859375 C-46.76207031 3.72257813 -47.37179688 3.85921875 -48 4 C-48.33 4.66 -48.66 5.32 -49 6 C-52.5 6.5 -52.5 6.5 -56 7 C-56.33 7.66 -56.66 8.32 -57 9 C-58.64551962 9.71727778 -60.31422289 10.38325228 -62 11 C-62.99 11.495 -62.99 11.495 -64 12 C-64.309375 13.155 -64.61875 14.31 -64.9375 15.5 C-65.288125 16.655 -65.63875 17.81 -66 19 C-66.99 19.33 -67.98 19.66 -69 20 C-73.32515097 27.06906395 -74.35042769 35.42694971 -74.7890625 43.53125 C-75 46 -75 46 -76 48 C-75.90276549 49.99021521 -75.90276549 49.99021521 -75.5625 52.125 C-75.2840625 54.043125 -75.2840625 54.043125 -75 56 C-79.6353098 49.0470353 -78.76692346 40.13613083 -78 32 C-75.52082233 21.82758937 -69.1065017 11.20345877 -60.34765625 5.24609375 C-42.35556817 -4.30378328 -19.62726974 -1.34532081 0 0 Z " fill="#1C224D" transform="translate(192,2)"/>
<path d="M0 0 C3.68616096 1.22872032 4.11759741 2.73355963 5.90625 6.01953125 C9.22282591 12.02490264 11.21658438 14.99580902 18 17 C18.75 19 18.75 19 19 21 C19.66 21.66 20.32 22.32 21 23 C21.39764263 24.98821313 21.73775349 26.98944339 22 29 C27.08086796 29.84681133 31.84828377 30.09038099 37 30 C36.48969238 25.53480834 34.81765077 23.41533427 32 20 C30.75 17.1875 30.75 17.1875 30 15 C32.50237731 15.37723104 33.71983099 15.69716889 35.46386719 17.58227539 C35.90375977 18.24735107 36.34365234 18.91242676 36.796875 19.59765625 C37.28027344 20.31630859 37.76367188 21.03496094 38.26171875 21.77539062 C38.99841797 22.90750977 38.99841797 22.90750977 39.75 24.0625 C40.25660156 24.82111328 40.76320312 25.57972656 41.28515625 26.36132812 C42.53383068 28.23433977 43.77145051 30.1137518 45 32 C44.505 32.99 44.505 32.99 44 34 C24.51225173 35.63403462 24.51225173 35.63403462 18.79296875 31.9140625 C15.83815083 28.17531329 13.93082568 24.68698109 13 20 C12.34 20 11.68 20 11 20 C8.62002126 16.85228619 7.03816887 14.09065107 5.5 10.4375 C4.03627263 7.08312477 2.31668679 4.7960013 0 2 C0 1.34 0 0.68 0 0 Z " fill="#141E4A" transform="translate(83,50)"/>
<path d="M0 0 C0.33 0 0.66 0 1 0 C1 7.92 1 15.84 1 24 C-9.7421875 24.9765625 -9.7421875 24.9765625 -13 25 C-15 23 -15 23 -15.125 19.375 C-15.08375 18.26125 -15.0425 17.1475 -15 16 C-19.03867161 16.11872832 -23.07713142 16.24300659 -27.11547852 16.37231445 C-28.48782776 16.4154884 -29.86022467 16.45717501 -31.23266602 16.49731445 C-33.21122068 16.55544392 -35.1895997 16.6194571 -37.16796875 16.68359375 C-38.35672607 16.72025146 -39.5454834 16.75690918 -40.77026367 16.79467773 C-43.61404847 16.97546411 -46.22906805 17.35809408 -49 18 C-48 16 -48 16 -45.33666992 14.8894043 C-41.9343201 13.98249273 -39.12602332 13.75617482 -35.61328125 13.76953125 C-34.42798828 13.77146484 -33.24269531 13.77339844 -32.02148438 13.77539062 C-30.18553711 13.79375977 -30.18553711 13.79375977 -28.3125 13.8125 C-27.07693359 13.81314453 -25.84136719 13.81378906 -24.56835938 13.81445312 C-15.42191393 13.85936202 -15.42191393 13.85936202 -12 15 C-11 18 -11 18 -12 21 C-9.03 20.67 -6.06 20.34 -3 20 C-3.495 18.02 -3.495 18.02 -4 16 C-4.06831987 13.5842094 -4.08487642 11.16665287 -4.0625 8.75 C-4.05347656 7.48671875 -4.04445312 6.2234375 -4.03515625 4.921875 C-4.02355469 3.95765625 -4.01195312 2.9934375 -4 2 C-5.65 2 -7.3 2 -9 2 C-9 1.67 -9 1.34 -9 1 C-6.36 1 -3.72 1 -1 1 C-1.00523682 1.60062256 -1.01047363 2.20124512 -1.01586914 2.82006836 C-1.03658014 5.52586838 -1.04964125 8.23165177 -1.0625 10.9375 C-1.07506836 12.35579102 -1.07506836 12.35579102 -1.08789062 13.80273438 C-1.09111328 14.70185547 -1.09433594 15.60097656 -1.09765625 16.52734375 C-1.10289307 17.35999756 -1.10812988 18.19265137 -1.11352539 19.05053711 C-1.21643292 21.00516798 -1.21643292 21.00516798 0 22 C0 14.74 0 7.48 0 0 Z " fill="#1B2351" transform="translate(192,3)"/>
<path d="M0 0 C0 0.99 0 1.98 0 3 C0.66 3.33 1.32 3.66 2 4 C2.33 2.68 2.66 1.36 3 0 C3.66 0 4.32 0 5 0 C4.67 1.65 4.34 3.3 4 5 C4.99 4.67 5.98 4.34 7 4 C9.1875 4.9375 9.1875 4.9375 11 6 C11.33 5.01 11.66 4.02 12 3 C12 4.65 12 6.3 12 8 C5.375 10.875 5.375 10.875 2 12 C2 10.02 2 8.04 2 6 C1.34 6 0.68 6 0 6 C0.33 6.99 0.66 7.98 1 9 C0.21625 9.433125 -0.5675 9.86625 -1.375 10.3125 C-4.21698375 11.89220247 -4.21698375 11.89220247 -6 15 C-6.66 15 -7.32 15 -8 15 C-8.33 15.99 -8.66 16.98 -9 18 C-10.0828125 19.06734375 -10.0828125 19.06734375 -11.1875 20.15625 C-14.63600305 23.64306975 -17.24833377 27.45630774 -20 31.5 C-23.35750342 36.43399615 -26.61189232 40.9345473 -31 45 C-29.52514999 40.72610668 -27.27706179 37.30211608 -24.625 33.6875 C-24.19018311 33.08647461 -23.75536621 32.48544922 -23.30737305 31.86621094 C-19.3615691 26.43593683 -15.32191818 21.07551836 -11.27880859 15.7175293 C-7.39600182 10.56224335 -3.63925252 5.33073609 0 0 Z " fill="#0F2460" transform="translate(49,28)"/>
<path d="M0 0 C0.66 0 1.32 0 2 0 C2 1.98 2 3.96 2 6 C2.66 6 3.32 6 4 6 C4.33 7.32 4.66 8.64 5 10 C4.34 10 3.68 10 3 10 C2.67 9.34 2.34 8.68 2 8 C-0.04301154 12.52381127 -1.00956295 17.16371695 -2 22 C-4.66666667 22 -7.33333333 22 -10 22 C-9.979375 21.236875 -9.95875 20.47375 -9.9375 19.6875 C-9.87057159 16.89814214 -9.87057159 16.89814214 -11 14 C-9.22381838 10.35415351 -6.94447331 7.75450729 -4 5 C-3.34 4.34 -2.68 3.68 -2 3 C-1.34 2.67 -0.68 2.34 0 2 C0 1.34 0 0.68 0 0 Z " fill="#092367" transform="translate(49,34)"/>
<path d="M0 0 C-2.06851004 2.06851004 -3.77592163 2.95477822 -6.375 4.25 C-11.56763782 7.09219823 -13.92634824 10.23583474 -16.07421875 15.765625 C-18.44005511 24.03107861 -18.03584991 32.67448089 -13.875 40.23046875 C-13 42 -13 42 -13 45 C-18.57142857 39.85714286 -18.57142857 39.85714286 -19 36 C-19.66 36 -20.32 36 -21 36 C-21.24982582 28.04721131 -20.63480954 20.77994181 -19 13 C-19 12.67 -19 12.34 -19 12 C-19 9.25 -19 9.25 -18 6 C-12.59849666 1.24213374 -7.070633 -0.20201809 0 0 Z " fill="#07154A" transform="translate(149,17)"/>
<path d="M0 0 C0.33 0 0.66 0 1 0 C1 10.56 1 21.12 1 32 C-15 32 -15 32 -19.25 28.1875 C-19.70890625 27.47980469 -20.1678125 26.77210937 -20.640625 26.04296875 C-22.14897061 23.77611601 -23.83684254 22.61312383 -26 21 C-26 20.34 -26 19.68 -26 19 C-23.25 18.25 -23.25 18.25 -20 18 C-17.625 19.6875 -17.625 19.6875 -16 22 C-16 23.32 -16 24.64 -16 26 C-14.169918 28.25680034 -14.169918 28.25680034 -11.46875 28.23046875 C-10.4890625 28.21628906 -9.509375 28.20210937 -8.5 28.1875 C-7.03046875 28.17783203 -7.03046875 28.17783203 -5.53125 28.16796875 C-3.00630616 28.16440726 -3.00630616 28.16440726 -1 27 C-0.67 18.09 -0.34 9.18 0 0 Z " fill="#060E40" transform="translate(80,51)"/>
<path d="M0 0 C0.66 0.33 1.32 0.66 2 1 C1.2575 1.495 0.515 1.99 -0.25 2.5 C-5.81801583 7.56183257 -7.67475152 13.85308193 -8.25 21.1875 C-7.74410292 28.90243045 -5.84637687 35.66200373 0 41 C6.03346504 44.82318577 11.9397591 45.97342192 19 45 C23.89461574 43.36846142 27.82545993 40.95272346 32 38 C30.60802671 41.38256721 29.1974504 42.83688682 26.0625 44.6875 C25.37285156 45.10386719 24.68320313 45.52023438 23.97265625 45.94921875 C19.11328544 48.53767568 14.37359113 48.45872119 9 48 C1.47149693 45.49049898 -4.08185174 41.99669333 -8 35 C-11.18644251 26.86196337 -11.34406905 17.68903773 -8.375 9.4375 C-6.36869623 5.05682953 -3.95290985 2.69516581 0 0 Z " fill="#394062" transform="translate(141,21)"/>
<path d="M0 0 C1 2 1 2 0.0625 4.9375 C-2.74691243 11.16021725 -7.18312148 17.18312148 -12 22 C-13.97119141 22.22705078 -13.97119141 22.22705078 -16.3515625 22.1953125 C-17.20234375 22.18886719 -18.053125 22.18242188 -18.9296875 22.17578125 C-20.26386719 22.15064453 -20.26386719 22.15064453 -21.625 22.125 C-22.97078125 22.11146484 -22.97078125 22.11146484 -24.34375 22.09765625 C-26.56276586 22.0740497 -28.78125077 22.0411231 -31 22 C-30.62890625 20.078125 -30.62890625 20.078125 -30 18 C-27.9375 16.75 -27.9375 16.75 -26 16 C-26 17.32 -26 18.64 -26 20 C-23.89551062 19.85890014 -21.7914123 19.71195825 -19.6875 19.5625 C-17.92986328 19.44068359 -17.92986328 19.44068359 -16.13671875 19.31640625 C-12.97409042 19.1132629 -12.97409042 19.1132629 -10 18 C-10.103125 17.113125 -10.20625 16.22625 -10.3125 15.3125 C-9.89586076 10.89612406 -8.23384188 9.94638927 -5 7 C-3.23769585 4.72329356 -1.63020233 2.37543768 0 0 Z " fill="#172049" transform="translate(42,62)"/>
<path d="M0 0 C3.68616096 1.22872032 4.11759741 2.73355963 5.90625 6.01953125 C9.22282591 12.02490264 11.21658438 14.99580902 18 17 C18.75 19 18.75 19 19 21 C19.66 21.66 20.32 22.32 21 23 C21.125 26.625 21.125 26.625 21 30 C16.79236776 28.4972742 15.1972242 25.76667005 13 22 C13 21.34 13 20.68 13 20 C12.34 20 11.68 20 11 20 C8.62002126 16.85228619 7.03816887 14.09065107 5.5 10.4375 C4.03627263 7.08312477 2.31668679 4.7960013 0 2 C0 1.34 0 0.68 0 0 Z " fill="#0D1D4D" transform="translate(83,50)"/>
<path d="M0 0 C0.66 0 1.32 0 2 0 C3.38442 1.96498322 4.71203834 3.97048465 6 6 C6.98866506 7.34175973 7.9838154 8.67896002 9 10 C8.67 10.66 8.34 11.32 8 12 C6.35 10.02 4.7 8.04 3 6 C2.97494385 6.81267334 2.9498877 7.62534668 2.92407227 8.46264648 C2.80850882 12.12110752 2.68560416 15.77928528 2.5625 19.4375 C2.52318359 20.71689453 2.48386719 21.99628906 2.44335938 23.31445312 C2.40146484 24.52939453 2.35957031 25.74433594 2.31640625 26.99609375 C2.27974854 28.12200928 2.24309082 29.2479248 2.20532227 30.40795898 C2 33 2 33 1 34 C-1.53049402 34.07313567 -4.03304837 34.09247527 -6.5625 34.0625 C-7.62887695 34.05573242 -7.62887695 34.05573242 -8.71679688 34.04882812 C-10.47790013 34.03700864 -12.23896036 34.01907263 -14 34 C-14 33.67 -14 33.34 -14 33 C-9.38 33 -4.76 33 0 33 C0 22.11 0 11.22 0 0 Z " fill="#2E3155" transform="translate(81,50)"/>
<path d="M0 0 C0 3 0 3 -1 6 C-0.34 6.33 0.32 6.66 1 7 C1.625 9.0625 1.625 9.0625 2 11 C1.01 11.33 0.02 11.66 -1 12 C-1 11.01 -1 10.02 -1 9 C-1.66 9 -2.32 9 -3 9 C-2.67 10.65 -2.34 12.3 -2 14 C-2.66 14 -3.32 14 -4 14 C-4 14.66 -4 15.32 -4 16 C-4.99 16 -5.98 16 -7 16 C-6.67 17.32 -6.34 18.64 -6 20 C-7.65 20.33 -9.3 20.66 -11 21 C-10.34 19.35 -9.68 17.7 -9 16 C-9.66 15.67 -10.32 15.34 -11 15 C-9.3553057 12.68668225 -7.70930345 10.37431549 -6.0625 8.0625 C-5.59392578 7.40314453 -5.12535156 6.74378906 -4.64257812 6.06445312 C-1.11328125 1.11328125 -1.11328125 1.11328125 0 0 Z " fill="#172456" transform="translate(101,7)"/>
<path d="M0 0 C1.32 0.33 2.64 0.66 4 1 C3.48530403 5.75917507 2.18574515 8.82582181 -0.4375 12.8125 C-1.05496094 13.76769531 -1.67242187 14.72289063 -2.30859375 15.70703125 C-4 18 -4 18 -6 19 C-6 17.68 -6 16.36 -6 15 C-5.34 15 -4.68 15 -4 15 C-3.83211627 13.37512529 -3.66573213 11.75009558 -3.5 10.125 C-3.4071875 9.22007813 -3.314375 8.31515625 -3.21875 7.3828125 C-2.96952705 5.06686789 -2.96952705 5.06686789 -3 3 C-4.258125 3.165 -5.51625 3.33 -6.8125 3.5 C-9.26456585 3.82158241 -11.51650694 4 -14 4 C-12 2 -12 2 -9.1796875 1.8046875 C-8.08914062 1.82789063 -6.99859375 1.85109375 -5.875 1.875 C-4.77929688 1.89304688 -3.68359375 1.91109375 -2.5546875 1.9296875 C-1.71164063 1.95289063 -0.86859375 1.97609375 0 2 C0 1.34 0 0.68 0 0 Z " fill="#162048" transform="translate(190,53)"/>
<path d="M0 0 C1.49080078 0.02707031 1.49080078 0.02707031 3.01171875 0.0546875 C3.77097656 0.07789063 4.53023437 0.10109375 5.3125 0.125 C5.3125 0.785 5.3125 1.445 5.3125 2.125 C4.46945313 2.16238281 3.62640625 2.19976562 2.7578125 2.23828125 C1.11425781 2.33689453 1.11425781 2.33689453 -0.5625 2.4375 C-1.65304688 2.49550781 -2.74359375 2.55351563 -3.8671875 2.61328125 C-5.26324219 2.86658203 -5.26324219 2.86658203 -6.6875 3.125 C-7.6775 4.61 -7.6775 4.61 -8.6875 6.125 C-7.6975 6.455 -6.7075 6.785 -5.6875 7.125 C-7.0075 7.125 -8.3275 7.125 -9.6875 7.125 C-9.6875 7.785 -9.6875 8.445 -9.6875 9.125 C-13.66062972 12.84179877 -18.60496007 16.13380815 -23.6875 18.125 C-25.96484375 17.76171875 -25.96484375 17.76171875 -27.6875 17.125 C-26.6975 17.125 -25.7075 17.125 -24.6875 17.125 C-24.6875 16.465 -24.6875 15.805 -24.6875 15.125 C-24.03523437 14.856875 -23.38296875 14.58875 -22.7109375 14.3125 C-16.9014751 11.7076673 -13.39124316 9.28039603 -9.94140625 3.89453125 C-7.15670609 -0.03527926 -4.47256171 -0.10523675 0 0 Z " fill="#202955" transform="translate(184.6875,52.875)"/>
<path d="M0 0 C0 4.03345219 -1.60169282 5.69925505 -3.875 9 C-4.59429687 10.051875 -5.31359375 11.10375 -6.0546875 12.1875 C-6.69664063 13.115625 -7.33859375 14.04375 -8 15 C-8.99 16.485 -8.99 16.485 -10 18 C-6.04 18 -2.08 18 2 18 C2 18.99 2 19.98 2 21 C1.67 20.67 1.34 20.34 1 20 C-1.18292774 19.76518307 -3.37203174 19.58636677 -5.5625 19.4375 C-6.76003906 19.35371094 -7.95757812 19.26992188 -9.19140625 19.18359375 C-10.58166016 19.09271484 -10.58166016 19.09271484 -12 19 C-11.48702536 12.4595734 -9.53074157 9.53074157 -5 5 C-4.690625 4.319375 -4.38125 3.63875 -4.0625 2.9375 C-3 1 -3 1 0 0 Z " fill="#19234D" transform="translate(60,38)"/>
<path d="M0 0 C0.33 0.66 0.66 1.32 1 2 C6.94 2 12.88 2 19 2 C18.01 2.99 17.02 3.98 16 5 C16 4.34 16 3.68 16 3 C7.585 3.495 7.585 3.495 -1 4 C-1.66 5.65 -2.32 7.3 -3 9 C-3.99 9 -4.98 9 -6 9 C-5.67 9.99 -5.34 10.98 -5 12 C-6.65 12.66 -8.3 13.32 -10 14 C-9.33333333 12.33333333 -8.66666667 10.66666667 -8 9 C-7.690625 8.13375 -7.38125 7.2675 -7.0625 6.375 C-5.97621366 3.94683054 -5.0636987 2.65095896 -3 1 C-2.01 0.67 -1.02 0.34 0 0 Z " fill="#0A123C" transform="translate(108,1)"/>
<path d="M0 0 C2.7839183 1.39195915 2.97898997 3.15575779 4 6 C0.25 9 0.25 9 -2 9 C-2.33 9.99 -2.66 10.98 -3 12 C-3.99 12 -4.98 12 -6 12 C-6.66 12.66 -7.32 13.32 -8 14 C-8.28875 13.195625 -8.5775 12.39125 -8.875 11.5625 C-9.73262568 8.8673532 -9.73262568 8.8673532 -12 8 C-10.625 6.5 -10.625 6.5 -9 5 C-8.34 5 -7.68 5 -7 5 C-7 5.99 -7 6.98 -7 8 C-5.35 7.67 -3.7 7.34 -2 7 C-1.855625 6.030625 -1.71125 5.06125 -1.5625 4.0625 C-1 1 -1 1 0 0 Z " fill="#09256A" transform="translate(182,60)"/>
<path d="M0 0 C1.15392455 2.3078491 1.53437166 4.47230331 2 7 C1.34 7 0.68 7 0 7 C-0.2475 7.804375 -0.495 8.60875 -0.75 9.4375 C-2 12 -2 12 -4.125 12.8125 C-4.74375 12.874375 -5.3625 12.93625 -6 13 C-6.33 14.65 -6.66 16.3 -7 18 C-7.99 17.67 -8.98 17.34 -10 17 C-7.47548706 10.58476711 -4.36243234 5.33670889 0 0 Z " fill="#141E4D" transform="translate(58,15)"/>
<path d="M0 0 C1.34799317 2.69598633 0.59670295 4.07528926 0 7 C-0.01492574 8.84022595 0.02868211 10.6815665 0.12109375 12.51953125 C0.16943359 13.54111328 0.21777344 14.56269531 0.26757812 15.61523438 C0.32365234 16.67033203 0.37972656 17.72542969 0.4375 18.8125 C0.51581055 20.42415039 0.51581055 20.42415039 0.59570312 22.06835938 C0.7249753 24.71256304 0.85992436 27.35635027 1 30 C0.01 29.34 -0.98 28.68 -2 28 C-2.37231445 25.41796875 -2.37231445 25.41796875 -2.36328125 22.1875 C-2.36263672 21.02992187 -2.36199219 19.87234375 -2.36132812 18.6796875 C-2.34521484 17.46539062 -2.32910156 16.25109375 -2.3125 15 C-2.31572266 13.78570312 -2.31894531 12.57140625 -2.32226562 11.3203125 C-2.26681548 2.26681548 -2.26681548 2.26681548 0 0 Z " fill="#0A1A47" transform="translate(68,31)"/>
<path d="M0 0 C0.33 0.66 0.66 1.32 1 2 C-5.84767456 11.78587971 -12.75429996 21.50374161 -20 31 C-20 20.72477384 -6.0901918 7.79923728 0 0 Z " fill="#394061" transform="translate(39,42)"/>
<path d="M0 0 C1.2317811 3.69534331 0.55465809 6.18672563 0 10 C0.33 10.66 0.66 11.32 1 12 C0.93793195 13.6701947 0.80373613 15.33823703 0.625 17 C0.53476563 17.886875 0.44453125 18.77375 0.3515625 19.6875 C0 22 0 22 -1 24 C-0.90276549 25.99021521 -0.90276549 25.99021521 -0.5625 28.125 C-0.376875 29.40375 -0.19125 30.6825 0 32 C-3.31995645 27.02006532 -3.21459835 23.73397331 -3.25 17.875 C-3.270625 17.04484375 -3.29125 16.2146875 -3.3125 15.359375 C-3.34890121 9.55338131 -2.3342896 5.31972313 0 0 Z " fill="#29315B" transform="translate(117,26)"/>
<path d="M0 0 C0.33 0.66 0.66 1.32 1 2 C0.0625 4.125 0.0625 4.125 -1 6 C-0.34 5.67 0.32 5.34 1 5 C1.66 6.32 2.32 7.64 3 9 C0.23735711 9.59732819 -2.16032769 10 -5 10 C-5.33 11.65 -5.66 13.3 -6 15 C-6.66 15 -7.32 15 -8 15 C-8.99 16.485 -8.99 16.485 -10 18 C-10.66 17.34 -11.32 16.68 -12 16 C-10.43209327 12.15150165 -7.91061833 9.91061833 -5 7 C-3.24891744 4.71597926 -1.62954037 2.37447312 0 0 Z " fill="#061652" transform="translate(28,60)"/>
<path d="M0 0 C2.18547815 1.05226726 4.18274029 2.12530763 6.1875 3.5 C9.59520221 5.31744118 12.48851367 5.72290353 16.3125 6.1875 C17.56675781 6.34605469 18.82101563 6.50460938 20.11328125 6.66796875 C21.54220703 6.83232422 21.54220703 6.83232422 23 7 C23 7.33 23 7.66 23 8 C19.7 8 16.4 8 13 8 C12.67 8.66 12.34 9.32 12 10 C11.34 9.34 10.68 8.68 10 8 C9.01 8.495 9.01 8.495 8 9 C7.34 8.34 6.68 7.68 6 7 C4.01643517 6.28591666 2.01684563 5.61382258 0 5 C0 3.35 0 1.7 0 0 Z " fill="#07154B" transform="translate(137,62)"/>
<path d="M0 0 C4.29 0 8.58 0 13 0 C13.06058594 1.55332031 13.12117188 3.10664063 13.18359375 4.70703125 C13.26800154 6.74219695 13.35264943 8.77735271 13.4375 10.8125 C13.47681641 11.83666016 13.51613281 12.86082031 13.55664062 13.91601562 C13.61948242 15.39038086 13.61948242 15.39038086 13.68359375 16.89453125 C13.72025146 17.80050049 13.75690918 18.70646973 13.79467773 19.63989258 C13.9208205 22.15048782 13.9208205 22.15048782 15 25 C14.34 25 13.68 25 13 25 C13 27.31 13 29.62 13 32 C12.67 32 12.34 32 12 32 C12 21.77 12 11.54 12 1 C3.06459421 1.52276811 3.06459421 1.52276811 -1 3 C-0.67 2.01 -0.34 1.02 0 0 Z " fill="#020734" transform="translate(68,3)"/>
<path d="M0 0 C0.33 1.32 0.66 2.64 1 4 C5.62 3.67 10.24 3.34 15 3 C15 3.99 15 4.98 15 6 C8.73 6 2.46 6 -4 6 C-3 2 -3 2 0 0 Z " fill="#171731" transform="translate(15,78)"/>
<path d="M0 0 C3.45826342 -0.05789006 6.91640293 -0.09355821 10.375 -0.125 C11.35984375 -0.14175781 12.3446875 -0.15851563 13.359375 -0.17578125 C14.77089844 -0.18544922 14.77089844 -0.18544922 16.2109375 -0.1953125 C17.51490479 -0.21102295 17.51490479 -0.21102295 18.84521484 -0.22705078 C21 0 21 0 23 2 C22 3 22 3 19.86694336 3.11352539 C18.95050049 3.10828857 18.03405762 3.10305176 17.08984375 3.09765625 C16.10048828 3.09443359 15.11113281 3.09121094 14.09179688 3.08789062 C13.05087891 3.07951172 12.00996094 3.07113281 10.9375 3.0625 C9.89271484 3.05798828 8.84792969 3.05347656 7.77148438 3.04882812 C5.1809334 3.03699913 2.59049441 3.02051689 0 3 C0 2.01 0 1.02 0 0 Z " fill="#141432" transform="translate(105,81)"/>
<path d="M0 0 C0.66 0.33 1.32 0.66 2 1 C2 1.66 2 2.32 2 3 C4.39763185 5.39763185 5.33273498 5.34280586 8.625 5.625 C9.44226562 5.69976562 10.25953125 5.77453125 11.1015625 5.8515625 C11.72804688 5.90054688 12.35453125 5.94953125 13 6 C13 6.66 13 7.32 13 8 C8.71 8 4.42 8 0 8 C-0.66 6.35 -1.32 4.7 -2 3 C-1.34 2.01 -0.68 1.02 0 0 Z " fill="#172551" transform="translate(16,74)"/>
<path d="M0 0 C0.99 0 1.98 0 3 0 C3 2 3 4 3 6 C2.01 6.66 1.02 7.32 0 8 C-1.19232613 10.05003955 -1.19232613 10.05003955 -2 12 C-2.66 12 -3.32 12 -4 12 C-4.99 12.495 -4.99 12.495 -6 13 C-5.04476793 10.35474197 -4.14300693 8.18876915 -2.4375 5.9375 C-0.94296201 3.92312271 -0.43661788 2.44506011 0 0 Z " fill="#091647" transform="translate(89,23)"/>
<path d="M0 0 C0 4.38968456 -2.12805101 5.76905739 -5 9 C-3.7508258 12.45925163 -2.32472205 15.14693203 0 18 C-0.33 18.66 -0.66 19.32 -1 20 C-6.95001462 13.04969307 -6.95001462 13.04969307 -7.125 9.375 C-3.51724138 1.75862069 -3.51724138 1.75862069 0 0 Z " fill="#05103D" transform="translate(103,32)"/>
<path d="M0 0 C0.99 0 1.98 0 3 0 C3.66 1.32 4.32 2.64 5 4 C3.35 5.98 1.7 7.96 0 10 C-0.66 9.34 -1.32 8.68 -2 8 C-1.625 4.875 -1.625 4.875 -1 2 C-0.34 2 0.32 2 1 2 C0.67 1.34 0.34 0.68 0 0 Z " fill="#192654" transform="translate(109,19)"/>
<path d="M0 0 C1.32 0.33 2.64 0.66 4 1 C4 1.99 4 2.98 4 4 C3.34 4 2.68 4 2 4 C1.67 5.32 1.34 6.64 1 8 C0.34 7.67 -0.32 7.34 -1 7 C-0.34 5.68 0.32 4.36 1 3 C0.16855469 3.0721875 -0.66289062 3.144375 -1.51953125 3.21875 C-3.14955078 3.35796875 -3.14955078 3.35796875 -4.8125 3.5 C-6.43091797 3.63921875 -6.43091797 3.63921875 -8.08203125 3.78125 C-11 4 -11 4 -14 4 C-12 2 -12 2 -9.1796875 1.8046875 C-8.08914062 1.82789063 -6.99859375 1.85109375 -5.875 1.875 C-4.77929688 1.89304688 -3.68359375 1.91109375 -2.5546875 1.9296875 C-1.71164063 1.95289063 -0.86859375 1.97609375 0 2 C0 1.34 0 0.68 0 0 Z " fill="#0A0D2E" transform="translate(190,53)"/>
<path d="M0 0 C0.33 0.66 0.66 1.32 1 2 C-2.75 5.875 -2.75 5.875 -5 7 C-5.65213292 9.02463255 -5.65213292 9.02463255 -6 11 C-7.65 11.33 -9.3 11.66 -11 12 C-8.84618556 6.71336455 -4.57763162 3.22129633 0 0 Z " fill="#1B2852" transform="translate(133,7)"/>
<path d="M0 0 C4.85110358 4.41009417 8.348107 9.58004353 12 15 C11.67 15.66 11.34 16.32 11 17 C9.3459856 14.92272602 7.70180656 12.83882992 6.0625 10.75 C5.59392578 10.16347656 5.12535156 9.57695313 4.64257812 8.97265625 C2.32647685 6.00671361 0.73252745 3.68717165 0 0 Z " fill="#374563" transform="translate(104,50)"/>
<path d="M0 0 C0.99 0 1.98 0 3 0 C1.87548273 2.9719385 0.77706209 5.33440687 -1 8 C-1.66 8 -2.32 8 -3 8 C-3.33 8.99 -3.66 9.98 -4 11 C-4.33 10.34 -4.66 9.68 -5 9 C-4.2578125 7.08984375 -4.2578125 7.08984375 -3.125 4.9375 C-2.75632813 4.22464844 -2.38765625 3.51179688 -2.0078125 2.77734375 C-1 1 -1 1 0 0 Z " fill="#0E1643" transform="translate(44,35)"/>
<path d="M0 0 C3.49413605 2.86698342 5.28836874 4.84150148 5.8125 9.3125 C5.874375 10.529375 5.93625 11.74625 6 13 C1.2 9.67692308 1.2 9.67692308 0.1875 6.25 C0.125625 5.5075 0.06375 4.765 0 4 C1.485 4.99 1.485 4.99 3 6 C2.2575 5.071875 2.2575 5.071875 1.5 4.125 C0 2 0 2 0 0 Z " fill="#1E2E58" transform="translate(99,44)"/>
<path d="M0 0 C0.33 0 0.66 0 1 0 C1 1.65 1 3.3 1 5 C1.67546875 4.97679687 2.3509375 4.95359375 3.046875 4.9296875 C4.38492188 4.90261719 4.38492188 4.90261719 5.75 4.875 C6.63171875 4.85179687 7.5134375 4.82859375 8.421875 4.8046875 C11.1135858 5.00860498 12.69904974 5.63448279 15 7 C12.87631556 7.22134176 10.75095976 7.42670007 8.625 7.625 C7.44164062 7.74101562 6.25828125 7.85703125 5.0390625 7.9765625 C4.03617188 7.98429687 3.03328125 7.99203125 2 8 C0 6 0 6 -0.125 2.875 C-0.08375 1.92625 -0.0425 0.9775 0 0 Z " fill="#344064" transform="translate(177,20)"/>
<path d="M0 0 C0.66 0 1.32 0 2 0 C2 0.66 2 1.32 2 2 C1.34 2 0.68 2 0 2 C-0.33 2.99 -0.66 3.98 -1 5 C-2.59375 6.38671875 -2.59375 6.38671875 -4.5 7.6875 C-5.44359375 8.34298828 -5.44359375 8.34298828 -6.40625 9.01171875 C-8 10 -8 10 -9 10 C-9 8.35 -9 6.7 -9 5 C-7.68 5 -6.36 5 -5 5 C-3.29319053 3.37446717 -1.62339805 1.70884005 0 0 Z " fill="#0E1D57" transform="translate(184,66)"/>
<path d="M0 0 C1.65 0.33 3.3 0.66 5 1 C5 2.98 5 4.96 5 7 C4.01 6.67 3.02 6.34 2 6 C1.67 6.99 1.34 7.98 1 9 C0.67 8.01 0.34 7.02 0 6 C-0.66 6 -1.32 6 -2 6 C-2 4 -2 4 0 2 C0 1.34 0 0.68 0 0 Z " fill="#162562" transform="translate(42,57)"/>
<path d="M0 0 C0.33 0.66 0.66 1.32 1 2 C0.67 2.66 0.34 3.32 0 4 C0.66 4.33 1.32 4.66 2 5 C1.67 5.66 1.34 6.32 1 7 C-0.32 6.67 -1.64 6.34 -3 6 C-3.103125 6.639375 -3.20625 7.27875 -3.3125 7.9375 C-3.539375 8.618125 -3.76625 9.29875 -4 10 C-4.99 10.33 -5.98 10.66 -7 11 C-5.5140084 6.40693504 -3.14985318 3.56430755 0 0 Z " fill="#061145" transform="translate(38,46)"/>
<path d="M0 0 C2.52557477 0.24441046 3.7852602 0.82360659 5.75 2.4375 C7 4 7 4 7 6 C3.51460083 5.35455571 0.97180943 3.89865603 -2 2 C-1.34 1.34 -0.68 0.68 0 0 Z " fill="#0A1A4D" transform="translate(57,69)"/>
<path d="M0 0 C0.66 0 1.32 0 2 0 C3.38442 1.96498322 4.71203834 3.97048465 6 6 C6.98866506 7.34175973 7.9838154 8.67896002 9 10 C8.67 10.66 8.34 11.32 8 12 C6.35 10.02 4.7 8.04 3 6 C2.01 6.495 2.01 6.495 1 7 C0.67 4.69 0.34 2.38 0 0 Z " fill="#3C4A76" transform="translate(81,50)"/>
<path d="M0 0 C0 2.83967231 -0.40267181 5.23735711 -1 8 C-1.66 8 -2.32 8 -3 8 C-3.99 9.485 -3.99 9.485 -5 11 C-5.66 10.34 -6.32 9.68 -7 9 C-5.44499019 5.18315774 -2.96404505 2.80804268 0 0 Z " fill="#0A1341" transform="translate(23,67)"/>
<path d="M0 0 C2.53910197 0.38520564 3.72751123 0.70097943 5.484375 2.62890625 C5.90203125 3.26699219 6.3196875 3.90507813 6.75 4.5625 C7.17796875 5.20316406 7.6059375 5.84382813 8.046875 6.50390625 C8.36140625 6.99761719 8.6759375 7.49132812 9 8 C8.67 8.66 8.34 9.32 8 10 C3.97881358 7.93506643 1.98665002 6.07786057 0 2 C0 1.34 0 0.68 0 0 Z " fill="#1E294E" transform="translate(113,65)"/>
<path d="M0 0 C2.84763523 2.84763523 3 5.03616548 3 9 C2.01 9.495 2.01 9.495 1 10 C-0.32 8.68 -1.64 7.36 -3 6 C-2.34 5.67 -1.68 5.34 -1 5 C-0.34444881 2.47266765 -0.34444881 2.47266765 0 0 Z " fill="#0D256B" transform="translate(125,58)"/>
<path d="M0 0 C0 3.63195496 -0.95453155 4.74713911 -3 7.6875 C-3.556875 8.49574219 -4.11375 9.30398437 -4.6875 10.13671875 C-5.120625 10.75160156 -5.55375 11.36648437 -6 12 C-7 10 -7 10 -6.328125 7.87109375 C-5.97234375 7.06800781 -5.6165625 6.26492187 -5.25 5.4375 C-4.73179688 4.22900391 -4.73179688 4.22900391 -4.203125 2.99609375 C-3 1 -3 1 0 0 Z " fill="#202951" transform="translate(60,38)"/>
<path d="M0 0 C2.97 0.495 2.97 0.495 6 1 C6.33 2.98 6.66 4.96 7 7 C6.34 7 5.68 7 5 7 C5 6.34 5 5.68 5 5 C4.34 5 3.68 5 3 5 C3 4.34 3 3.68 3 3 C2.34 3 1.68 3 1 3 C0.67 2.01 0.34 1.02 0 0 Z " fill="#212655" transform="translate(122,67)"/>
<path d="M0 0 C0.33 0.66 0.66 1.32 1 2 C0.14883791 4.43189168 -0.84845643 6.69691285 -2 9 C-2.99 9 -3.98 9 -5 9 C-3.375 2.25 -3.375 2.25 0 0 Z " fill="#09113D" transform="translate(63,10)"/>
<path d="M0 0 C1.48976459 0.70726198 2.96662996 1.44173906 4.4375 2.1875 C5.26121094 2.59355469 6.08492187 2.99960938 6.93359375 3.41796875 C9 5 9 5 9.78515625 7.67578125 C9.85605469 8.44277344 9.92695312 9.20976563 10 10 C5.72035822 8.57345274 2.96760561 5.82041055 0.84765625 1.83203125 C0.56792969 1.22746094 0.28820313 0.62289062 0 0 Z " fill="#1A2848" transform="translate(54,70)"/>
<path d="M0 0 C2 2 2 2 2.25 5.4375 C2 9 2 9 0 12 C-1.28571429 3.42857143 -1.28571429 3.42857143 0 0 Z " fill="#091B55" transform="translate(129,37)"/>
<path d="M0 0 C0.33 0.66 0.66 1.32 1 2 C0.06421005 4.35981813 -0.93347808 6.69631264 -2 9 C-2.99 9 -3.98 9 -5 9 C-3.7508258 5.54074837 -2.32472205 2.85306797 0 0 Z " fill="#0F1646" transform="translate(42,62)"/>
<path d="M0 0 C3.36591866 1.44253657 5.51047079 3.33264727 8 6 C5.69 5.34 3.38 4.68 1 4 C0.67 2.68 0.34 1.36 0 0 Z " fill="#0D1940" transform="translate(129,72)"/>
<path d="M0 0 C1 2 1 2 0.44140625 4.1640625 C0.15136719 4.97617187 -0.13867188 5.78828125 -0.4375 6.625 C-0.72496094 7.44226562 -1.01242188 8.25953125 -1.30859375 9.1015625 C-1.53675781 9.72804688 -1.76492187 10.35453125 -2 11 C-4.0234375 7.328125 -4.0234375 7.328125 -3.8125 4.375 C-3 2 -3 2 0 0 Z " fill="#040E41" transform="translate(133,28)"/>
<path d="M0 0 C0.804375 0.4640625 0.804375 0.4640625 1.625 0.9375 C4.3984957 2.17827439 7.00042837 2.5909675 10 3 C7.38058783 4.74627478 5.96175123 5.38722388 3 6 C2.01 4.02 1.02 2.04 0 0 Z " fill="#0C1947" transform="translate(62,77)"/>
<path d="M0 0 C1.32 0.33 2.64 0.66 4 1 C4.66 3.31 5.32 5.62 6 8 C5.34 8 4.68 8 4 8 C0 2.58823529 0 2.58823529 0 0 Z " fill="#252C53" transform="translate(90,62)"/>
<path d="M0 0 C0.66 0 1.32 0 2 0 C2.33 1.32 2.66 2.64 3 4 C0.525 5.485 0.525 5.485 -2 7 C-2.125 4.625 -2.125 4.625 -2 2 C-1.34 1.34 -0.68 0.68 0 0 Z " fill="#041A59" transform="translate(64,27)"/>
<path d="M0 0 C0.99 0 1.98 0 3 0 C2.67 2.31 2.34 4.62 2 7 C0.35 7.66 -1.3 8.32 -3 9 C-2.5359375 7.88625 -2.5359375 7.88625 -2.0625 6.75 C-1.1905075 4.49307824 -0.52332993 2.3549847 0 0 Z " fill="#08103B" transform="translate(101,6)"/>
<path d="M0 0 C5.57142857 5.14285714 5.57142857 5.14285714 6 9 C4.125 8.4375 4.125 8.4375 2 7 C0.75 3.375 0.75 3.375 0 0 Z " fill="#0B153E" transform="translate(98,71)"/>
<path d="M0 0 C2.96404505 2.80804268 5.44499019 5.18315774 7 9 C5.35 8.67 3.7 8.34 2 8 C1.34 5.36 0.68 2.72 0 0 Z " fill="#021440" transform="translate(104,53)"/>
<path d="M0 0 C1.65 0.33 3.3 0.66 5 1 C4.67 1.99 4.34 2.98 4 4 C1.69 4 -0.62 4 -3 4 C-2.01 2.68 -1.02 1.36 0 0 Z " fill="#050F40" transform="translate(139,4)"/>
</svg>
