<?xml version="1.0" encoding="UTF-8"?>
<svg version="1.1" xmlns="http://www.w3.org/2000/svg" width="175" height="80">
<path d="M0 0 C0.99 0.495 0.99 0.495 2 1 C2.4140625 3.28515625 2.4140625 3.28515625 2.625 6.0625 C2.73714844 7.44115234 2.73714844 7.44115234 2.8515625 8.84765625 C2.90054688 9.55792969 2.94953125 10.26820312 3 11 C5.31 11.33 7.62 11.66 10 12 C10 8.37 10 4.74 10 1 C14 1 14 1 16.25 2.8125 C18.74439988 7.3558712 19.02954322 11.92041541 18 17 C16.6787323 18.34529075 15.34472331 19.67815478 14 21 C12.99093643 23.85074342 12.99093643 23.85074342 12.4375 26.9375 C11.57170893 31.19116918 10.56695332 34.4532935 8 38 C7.34 38 6.68 38 6 38 C6 38.66 6 39.32 6 40 C-0.62437847 44.0765406 -6.25413494 45.18477885 -14 44 C-17.57102357 42.67431865 -20.73788392 40.95017809 -24 39 C-25.32783182 38.32244198 -26.6594347 37.65200222 -28 37 C-28.50789063 37.40992188 -29.01578125 37.81984375 -29.5390625 38.2421875 C-36.96657491 44.0562328 -36.96657491 44.0562328 -42 45 C-43.37970497 44.82552369 -44.75518918 44.61509599 -46.125 44.375 C-48.043125 44.189375 -48.043125 44.189375 -50 44 C-52.33454661 45.83358335 -52.33454661 45.83358335 -54 48 C-54.99 48 -55.98 48 -57 48 C-57.33 44.37 -57.66 40.74 -58 37 C-59.98 37 -61.96 37 -64 37 C-64 40.3 -64 43.6 -64 47 C-65.98 47.495 -65.98 47.495 -68 48 C-71.94481465 43.36484279 -73.83204743 40.22478809 -73.5 34.05078125 C-72.71982809 30.85085742 -70.31840976 29.26320953 -68 27 C-67.38195914 24.75387478 -67.38195914 24.75387478 -67.0625 22.25 C-66.11673754 16.48944682 -64.04440749 12.2431711 -60 8 C-54.49467002 4.16075673 -48.59208719 3.03645071 -42 4 C-36.12588183 5.42203978 -31.74466318 8.34265546 -27 12 C-26.5153125 11.60167969 -26.030625 11.20335937 -25.53125 10.79296875 C-19.66184253 6.15387938 -14.35606648 2.74765229 -6.6875 3 C-3.075 3.36875 -3.075 3.36875 -1 1.5 C-0.67 1.005 -0.34 0.51 0 0 Z M-52.4375 18.625 C-54.49791771 21.75683492 -54.6767545 23.31544773 -54 27 C-52.02033737 30.06307631 -52.02033737 30.06307631 -49 32 C-44.04514447 32.10542246 -40.80903702 30.02991581 -37 27 C-35.61131484 24.89960669 -35.61131484 24.89960669 -35 23 C-35.94875 22.195625 -36.8975 21.39125 -37.875 20.5625 C-38.67550781 19.88380859 -38.67550781 19.88380859 -39.4921875 19.19140625 C-43.48689145 16.03496919 -48.18560559 15.79040373 -52.4375 18.625 Z M-9.05859375 16.671875 C-9.84363281 17.02765625 -10.62867188 17.3834375 -11.4375 17.75 C-12.21996094 18.09546875 -13.00242187 18.4409375 -13.80859375 18.796875 C-15.98363862 19.99101728 -17.43015685 21.0869114 -19 23 C-19 26.04043918 -17.99479884 27.00535414 -15.875 29.1875 C-12.41006358 31.37191644 -10.08853374 31.92699047 -6 32 C-3.03506935 31.18792354 -3.03506935 31.18792354 -1 29 C0.33660145 25.64407137 0.33660145 25.64407137 0 22 C-3.67560381 17.14355534 -3.67560381 17.14355534 -9.05859375 16.671875 Z " fill="#141441" transform="translate(122,2)"/>
<path d="M0 0 C1.9375 2.25 1.9375 2.25 1.875 5.75 C1.12576175 8.54715615 0.41628294 10.78536176 -1.0625 13.25 C-1.7225 13.25 -2.3825 13.25 -3.0625 13.25 C-3.3925 13.91 -3.7225 14.57 -4.0625 15.25 C-5.55989583 13.98046875 -7.05729167 12.7109375 -8.5546875 11.44140625 C-11.95148127 8.75741117 -14.81915223 8.95222121 -19.0625 9.25 C-21.12652685 10.23048938 -21.12652685 10.23048938 -22.0625 12.25 C-22.72971536 15.16440699 -22.72971536 15.16440699 -22.0625 18.25 C-20.825 19.36375 -20.825 19.36375 -19.5625 20.5 C-16.83086484 23.50479868 -16.59026402 24.29529375 -16.375 28.1875 C-16.55829667 32.01954607 -17.22412206 34.08495097 -19.875 36.875 C-23.0625 39.25 -23.0625 39.25 -26.0625 39.25 C-26.3925 35.62 -26.7225 31.99 -27.0625 28.25 C-29.0425 28.25 -31.0225 28.25 -33.0625 28.25 C-33.0625 31.55 -33.0625 34.85 -33.0625 38.25 C-35.0425 38.745 -35.0425 38.745 -37.0625 39.25 C-41.00731465 34.61484279 -42.89454743 31.47478809 -42.5625 25.30078125 C-41.78232809 22.10085742 -39.38090976 20.51320953 -37.0625 18.25 C-36.44445914 16.00387478 -36.44445914 16.00387478 -36.125 13.5 C-35.17923754 7.73944682 -33.10690749 3.4931711 -29.0625 -0.75 C-19.48998794 -7.42556762 -9.52318042 -5.44181738 0 0 Z " fill="#781619" transform="translate(91.0625,10.75)"/>
<path d="M0 0 C0.495 1.485 0.495 1.485 1 3 C0.67 3.33 0.34 3.66 0 4 C0.01160156 4.62390625 0.02320313 5.2478125 0.03515625 5.890625 C0.06599123 8.55124367 -0.07700412 10.49288562 -1 13 C-3.44053803 14.71143275 -5.87880887 15.75157757 -8.62890625 16.890625 C-11.7114987 18.33289231 -12.56144093 19.97145459 -14 23 C-14.845625 23.825 -15.69125 24.65 -16.5625 25.5 C-19.10573466 27.75814043 -19.10573466 27.75814043 -19.85546875 30.42578125 C-22.31634882 35.96066169 -28.89348707 39.0086998 -34.1875 41.5 C-37.67279676 42.11960831 -40.54734813 41.69053037 -44 41 C-44.22675615 36.81834974 -44.17873666 33.03836237 -43 29 C-40.58510402 27.05405842 -38.3401722 26.12043268 -35.44921875 25.0234375 C-32.30240653 23.70850161 -30.90012408 21.77101428 -29 19 C-28.34 19 -27.68 19 -27 19 C-26.87625 18.46375 -26.7525 17.9275 -26.625 17.375 C-26.41875 16.59125 -26.2125 15.8075 -26 15 C-25.731875 13.96875 -25.46375 12.9375 -25.1875 11.875 C-23.78519522 8.47994632 -23.19656291 8.4398932 -20 7 C-18.70035203 6.1791697 -17.40872978 5.34550877 -16.125 4.5 C-10.78129024 1.14533776 -6.36835555 -0.30325503 0 0 Z " fill="#07A054" transform="translate(117,5)"/>
<path d="M0 0 C1.66519519 0.34060811 3.33157466 0.67558396 5 1 C4.67 2.65 4.34 4.3 4 6 C5.98 5.67 7.96 5.34 10 5 C10.66 6.32 11.32 7.64 12 9 C12.5775 8.319375 13.155 7.63875 13.75 6.9375 C14.4925 6.298125 15.235 5.65875 16 5 C18.25 5.25 18.25 5.25 20 6 C19.52558085 8.43986989 19.05833639 10.8143842 18.3125 13.1875 C18.209375 13.785625 18.10625 14.38375 18 15 C18.66 15.66 19.32 16.32 20 17 C19.625 19.625 19.625 19.625 19 22 C16.13275314 21.42655063 15.1385485 21.1385485 13 19 C12.62875 19.515625 12.2575 20.03125 11.875 20.5625 C10 22 10 22 7.0625 21.625 C5.5465625 21.315625 5.5465625 21.315625 4 21 C2.65667272 21.29044914 1.31774196 21.60955794 0 22 C-1.66342837 20.33657163 -1.36048097 18.2174291 -1.5625 15.9375 C-1.64628906 15.01839844 -1.73007812 14.09929687 -1.81640625 13.15234375 C-1.87699219 12.44207031 -1.93757813 11.73179688 -2 11 C-5.8665284 14.222107 -6.88059018 17.14922412 -8 22 C-9.32 21.67 -10.64 21.34 -12 21 C-12 14.07 -12 7.14 -12 0 C-10.02 0 -8.04 0 -6 0 C-3.44211818 -1.27894091 -2.70140697 -0.77183056 0 0 Z M-2 3 C-2.99 4.485 -2.99 4.485 -4 6 C-3.34 6 -2.68 6 -2 6 C-1.67 6.66 -1.34 7.32 -1 8 C-0.34 7.01 0.32 6.02 1 5 C0.01 4.34 -0.98 3.68 -2 3 Z M5 9 C5 11.97 5 14.94 5 18 C6.32 17.01 7.64 16.02 9 15 C7.88145414 11.27385847 7.88145414 11.27385847 5 9 Z " fill="#110E20" transform="translate(64,55)"/>
<path d="M0 0 C0.80566406 0.00257812 1.61132812 0.00515625 2.44140625 0.0078125 C3.64603516 0.00394531 3.64603516 0.00394531 4.875 0 C7.00390625 0.1328125 7.00390625 0.1328125 9.00390625 1.1328125 C9.66390625 0.8028125 10.32390625 0.4728125 11.00390625 0.1328125 C13.69403964 -0.05423154 16.30076802 0.04699859 19.00390625 0.1328125 C20.00390625 1.1328125 20.00390625 1.1328125 20.11743164 3.17407227 C20.11219482 4.04862061 20.10695801 4.92316895 20.1015625 5.82421875 C20.09833984 6.76845703 20.09511719 7.71269531 20.09179688 8.68554688 C20.08341797 9.67876953 20.07503906 10.67199219 20.06640625 11.6953125 C20.06189453 12.69240234 20.05738281 13.68949219 20.05273438 14.71679688 C20.04090632 17.18886099 20.02442474 19.66080768 20.00390625 22.1328125 C17.03390625 22.1328125 14.06390625 22.1328125 11.00390625 22.1328125 C10.67390625 20.4828125 10.34390625 18.8328125 10.00390625 17.1328125 C11.98390625 17.1328125 13.96390625 17.1328125 16.00390625 17.1328125 C16.00390625 16.4728125 16.00390625 15.8128125 16.00390625 15.1328125 C14.02390625 15.1328125 12.04390625 15.1328125 10.00390625 15.1328125 C9.69453125 16.1021875 9.38515625 17.0715625 9.06640625 18.0703125 C8.00390625 21.1328125 8.00390625 21.1328125 7.00390625 22.1328125 C5.48462587 22.20461214 3.96223143 22.21673257 2.44140625 22.1953125 C1.61511719 22.18628906 0.78882813 22.17726563 -0.0625 22.16796875 C-1.01962891 22.15056641 -1.01962891 22.15056641 -1.99609375 22.1328125 C-1.99609375 20.4828125 -1.99609375 18.8328125 -1.99609375 17.1328125 C-0.34609375 17.1328125 1.30390625 17.1328125 3.00390625 17.1328125 C3.00390625 16.4728125 3.00390625 15.8128125 3.00390625 15.1328125 C2.19953125 15.1534375 1.39515625 15.1740625 0.56640625 15.1953125 C-1.99609375 15.1328125 -1.99609375 15.1328125 -2.99609375 14.1328125 C-3.09502315 11.96800453 -3.12580475 9.79987465 -3.12109375 7.6328125 C-3.12367188 6.446875 -3.12625 5.2609375 -3.12890625 4.0390625 C-2.95330535 0.19650173 -2.95330535 0.19650173 0 0 Z M2.00390625 5.1328125 C2.00390625 7.1128125 2.00390625 9.0928125 2.00390625 11.1328125 C2.33390625 11.1328125 2.66390625 11.1328125 3.00390625 11.1328125 C3.00390625 9.1528125 3.00390625 7.1728125 3.00390625 5.1328125 C2.67390625 5.1328125 2.34390625 5.1328125 2.00390625 5.1328125 Z M14.00390625 5.1328125 C14.00390625 7.1128125 14.00390625 9.0928125 14.00390625 11.1328125 C14.66390625 11.1328125 15.32390625 11.1328125 16.00390625 11.1328125 C16.00390625 9.1528125 16.00390625 7.1728125 16.00390625 5.1328125 C15.34390625 5.1328125 14.68390625 5.1328125 14.00390625 5.1328125 Z " fill="#130F24" transform="translate(139.99609375,54.8671875)"/>
<path d="M0 0 C3.3 0 6.6 0 10 0 C10 1.32 10 2.64 10 4 C9.34 4 8.68 4 8 4 C8 8.29 8 12.58 8 17 C8.66 17 9.32 17 10 17 C10 18.65 10 20.3 10 22 C6.7 22 3.4 22 0 22 C0 20.68 0 19.36 0 18 C-0.99 18.33 -1.98 18.66 -3 19 C-5.6875 18.5625 -5.6875 18.5625 -8 18 C-7.67 16.35 -7.34 14.7 -7 13 C-7.99 13 -8.98 13 -10 13 C-10 12.34 -10 11.68 -10 11 C-9.01 11 -8.02 11 -7 11 C-7 10.34 -7 9.68 -7 9 C-6.01 9 -5.02 9 -4 9 C-4 8.34 -4 7.68 -4 7 C-2.02 7 -0.04 7 2 7 C2 6.01 2 5.02 2 4 C1.34 4 0.68 4 0 4 C0 2.68 0 1.36 0 0 Z " fill="#110E22" transform="translate(25,55)"/>
<path d="M0 0 C3.85658398 2.15078722 7.54319097 4.23455278 11 7 C10.43628586 10.26954202 9.50037734 11.82575883 7 14 C7.33 14.99 7.66 15.98 8 17 C8.66 17 9.32 17 10 17 C10.33 18.65 10.66 20.3 11 22 C9.68 22.33 8.36 22.66 7 23 C6.01 21.68 5.02 20.36 4 19 C3.34 20.32 2.68 21.64 2 23 C1.01 23 0.02 23 -1 23 C-2.7680198 19.4639604 -2.18464913 15.39428745 -2.1875 11.5 C-2.20586914 10.17935547 -2.20586914 10.17935547 -2.22460938 8.83203125 C-2.22654297 7.99027344 -2.22847656 7.14851563 -2.23046875 6.28125 C-2.23457764 5.50845703 -2.23868652 4.73566406 -2.24291992 3.93945312 C-2 2 -2 2 0 0 Z M3 8 C3 8.66 3 9.32 3 10 C3.66 10 4.32 10 5 10 C5 9.34 5 8.68 5 8 C4.34 8 3.68 8 3 8 Z " fill="#120F20" transform="translate(101,54)"/>
<path d="M0 0 C3.5625 0.125 3.5625 0.125 5.5625 1.125 C5.2325 2.775 4.9025 4.425 4.5625 6.125 C3.9025 6.125 3.2425 6.125 2.5625 6.125 C2.5625 7.775 2.5625 9.425 2.5625 11.125 C3.5525 11.125 4.5425 11.125 5.5625 11.125 C4.6875 16 4.6875 16 3.5625 17.125 C-0.278777 17.38108513 -3.26892583 17.47209198 -6.4375 15.125 C-7.1875 13 -7.1875 13 -7.4375 11.125 C-8.0975 11.125 -8.7575 11.125 -9.4375 11.125 C-9.75 8.9375 -9.75 8.9375 -9.4375 6.125 C-7 3.375 -7 3.375 -4.4375 1.125 C-3.4375 0.125 -3.4375 0.125 0 0 Z M-0.4375 4.125 C-1.0975 4.785 -1.7575 5.445 -2.4375 6.125 C-0.7875 6.125 0.8625 6.125 2.5625 6.125 C1.5725 5.465 0.5825 4.805 -0.4375 4.125 Z M-2.4375 11.125 C-2.4375 11.455 -2.4375 11.785 -2.4375 12.125 C-0.7875 12.125 0.8625 12.125 2.5625 12.125 C2.5625 11.795 2.5625 11.465 2.5625 11.125 C0.9125 11.125 -0.7375 11.125 -2.4375 11.125 Z " fill="#110E21" transform="translate(92.4375,59.875)"/>
<path d="M0 0 C3.96 0 7.92 0 12 0 C12 1.32 12 2.64 12 4 C11.01 4 10.02 4 9 4 C9.02320313 5.04800781 9.04640625 6.09601562 9.0703125 7.17578125 C9.08907303 8.55468037 9.10727293 9.9335872 9.125 11.3125 C9.15013672 12.34793945 9.15013672 12.34793945 9.17578125 13.40429688 C9.21217794 17.17135396 9.14378864 18.78431704 7 22 C5.68 21.67 4.36 21.34 3 21 C3 15.39 3 9.78 3 4 C2.01 4 1.02 4 0 4 C0 2.68 0 1.36 0 0 Z " fill="#110E22" transform="translate(36,55)"/>
<path d="M0 0 C0.33 0 0.66 0 1 0 C1.3327958 3.66075376 1.46170299 5.39500988 -0.8125 8.375 C-3 10 -3 10 -6 10 C-6 10.66 -6 11.32 -6 12 C-7.134375 12.495 -8.26875 12.99 -9.4375 13.5 C-11.8194007 14.82541249 -12.8085916 15.430125 -13.6875 18.046875 C-14.00182131 20.50160806 -14.00182131 20.50160806 -14 24 C-10.7 23.67 -7.4 23.34 -4 23 C-4 22.34 -4 21.68 -4 21 C-3.01 21 -2.02 21 -1 21 C-1 20.01 -1 19.02 -1 18 C-0.34 18 0.32 18 1 18 C1 17.34 1 16.68 1 16 C1.99 16 2.98 16 4 16 C4 14.68 4 13.36 4 12 C4.99 12.33 5.98 12.66 7 13 C5.03304524 19.34889285 0.47624857 21.70747961 -5 25 C-9.72618375 27.22408647 -12.90491261 27.01901748 -18 26 C-18.22675615 21.81834974 -18.17873666 18.03836237 -17 14 C-14.58510402 12.05405842 -12.3401722 11.12043268 -9.44921875 10.0234375 C-6.30240653 8.70850161 -4.90012408 6.77101428 -3 4 C-2.34 4 -1.68 4 -1 4 C-0.67 2.68 -0.34 1.36 0 0 Z " fill="#2A8B5C" transform="translate(91,20)"/>
<path d="M0 0 C1.65 0 3.3 0 5 0 C5 5.61 5 11.22 5 17 C5.66 17 6.32 17 7 17 C7 18.65 7 20.3 7 22 C4.03 22 1.06 22 -2 22 C-1.34 16.39 -0.68 10.78 0 5 C-0.66 5 -1.32 5 -2 5 C-1.34 3.35 -0.68 1.7 0 0 Z " fill="#141123" transform="translate(130,55)"/>
<path d="M0 0 C2.1519437 3.22791555 2.20086443 4.28400809 2 8 C1.01 8.33 0.02 8.66 -1 9 C-1 9.99 -1 10.98 -1 12 C-7.42527261 12.48492623 -7.42527261 12.48492623 -10 10.3125 C-11.27800253 7.35711914 -11.08051862 6.01001617 -10 3 C-7.55568374 -0.93806508 -4.28894486 -0.46788489 0 0 Z M-6 2 C-2 3 -2 3 -2 3 Z " fill="#141120" transform="translate(125,65)"/>
<path d="M0 0 C0.33 0.99 0.66 1.98 1 3 C0.67 3.33 0.34 3.66 0 4 C0.01160156 4.62390625 0.02320312 5.2478125 0.03515625 5.890625 C0.06593942 8.54677247 -0.08774118 10.49450043 -1 13 C-3.38541941 14.76812049 -5.73575032 15.80662048 -8.4765625 16.9375 C-11.42572222 18.17925146 -13.62960704 19.86664633 -16 22 C-16 21.01 -16 20.02 -16 19 C-15.34 19 -14.68 19 -14 19 C-14 17.68 -14 16.36 -14 15 C-13.05125 14.690625 -12.1025 14.38125 -11.125 14.0625 C-8.13919592 13.12605258 -8.13919592 13.12605258 -6 12 C-5.53348793 9.87423218 -5.53348793 9.87423218 -5.375 7.4375 C-5.25125 5.973125 -5.1275 4.50875 -5 3 C-9.455 3.495 -9.455 3.495 -14 4 C-10.07627117 0.07627117 -5.34401044 -0.25447669 0 0 Z " fill="#259960" transform="translate(117,5)"/>
<path d="M0 0 C7.48979072 -0.40123879 12.57494255 1.04282431 19.0625 4.75 C21 7 21 7 20.9375 10.5 C20.18826175 13.29715615 19.47878294 15.53536176 18 18 C17.34 18 16.68 18 16 18 C15.67 18.66 15.34 19.32 15 20 C12.97945196 18.35830472 10.97956942 16.69088222 9 15 C9 14.67 9 14.34 9 14 C11.31 14.33 13.62 14.66 16 15 C16.33 13.35 16.66 11.7 17 10 C17.66 10 18.32 10 19 10 C18.67 8.68 18.34 7.36 18 6 C15.69 6 13.38 6 11 6 C11 5.34 11 4.68 11 4 C10.01 4 9.02 4 8 4 C8 3.34 8 2.68 8 2 C5.36 1.67 2.72 1.34 0 1 C0 0.67 0 0.34 0 0 Z " fill="#5A2925" transform="translate(72,6)"/>
<path d="M0 0 C3 2 3 2 3.50390625 4.171875 C3.6578403 10.94497311 3.6578403 10.94497311 1.7578125 13.9921875 C0.1875 15.625 0.1875 15.625 -3 18 C-3.99 18 -4.98 18 -6 18 C-6.33 13.38 -6.66 8.76 -7 4 C-6.01 4.33 -5.02 4.66 -4 5 C-4 6.98 -4 8.96 -4 11 C-2.68 10.34 -1.36 9.68 0 9 C0 6.03 0 3.06 0 0 Z " fill="#6B1D1D" transform="translate(71,32)"/>
<path d="M0 0 C1.44715727 3.87186448 0.5441918 6.8232328 -0.4375 10.75 C-0.72496094 11.92046875 -1.01242188 13.0909375 -1.30859375 14.296875 C-1.53675781 15.18890625 -1.76492187 16.0809375 -2 17 C-3.95143557 15.3703437 -4.90331891 14.43023084 -5.46875 11.9140625 C-5.53086958 7.3638033 -5.49112678 5.6016303 -2.5 1.9375 C-1.2625 0.9784375 -1.2625 0.9784375 0 0 Z " fill="#711D26" transform="translate(54,29)"/>
<path d="M0 0 C1.32 0.33 2.64 0.66 4 1 C3.6875 2.9375 3.6875 2.9375 3 5 C2.01 5.33 1.02 5.66 0 6 C0.99 7.65 1.98 9.3 3 11 C0.3333581 12.33332095 -1.16680303 11.67102033 -4 11 C-3.67 9.35 -3.34 7.7 -3 6 C-3.99 6 -4.98 6 -6 6 C-6 5.34 -6 4.68 -6 4 C-5.01 4 -4.02 4 -3 4 C-3 3.34 -3 2.68 -3 2 C-2.01 2 -1.02 2 0 2 C0 1.34 0 0.68 0 0 Z " fill="#07060E" transform="translate(21,62)"/>
<path d="M0 0 C6.48578407 -0.34745272 12.3841715 0.05830902 17.61328125 4.3125 C18.79837978 5.48758361 19.90827549 6.73769354 21 8 C20.01 8 19.02 8 18 8 C18 7.34 18 6.68 18 6 C15.69 6 13.38 6 11 6 C11 5.34 11 4.68 11 4 C10.01 4 9.02 4 8 4 C8 3.34 8 2.68 8 2 C5.36 1.67 2.72 1.34 0 1 C0 0.67 0 0.34 0 0 Z " fill="#702328" transform="translate(72,6)"/>
<path d="M0 0 C2.31 0 4.62 0 7 0 C7 0.66 7 1.32 7 2 C5.02 2.33 3.04 2.66 1 3 C1 6.3 1 9.6 1 13 C-0.32 13.33 -1.64 13.66 -3 14 C-3.33 13.01 -3.66 12.02 -4 11 C-3.01 11 -2.02 11 -1 11 C-1.020625 9.741875 -1.04125 8.48375 -1.0625 7.1875 C-1.10886083 4.35948913 -0.91692961 2.75078884 0 0 Z " fill="#5A1717" transform="translate(57,36)"/>
<path d="M0 0 C3.95125774 1.31708591 4.90219061 2.38308725 7 6 C7.55073422 9.7297248 7.77899111 13.29979221 7 17 C4.96875 18.8359375 4.96875 18.8359375 3 20 C3.495 18.7315625 3.495 18.7315625 4 17.4375 C5.06105954 13.79010784 5.15109013 10.77725336 5 7 C4.195625 6.7525 3.39125 6.505 2.5625 6.25 C0 5 0 5 -0.875 2.9375 C-0.91625 2.298125 -0.9575 1.65875 -1 1 C-0.67 0.67 -0.34 0.34 0 0 Z " fill="#100D2C" transform="translate(133,2)"/>
<path d="M0 0 C0.33 0 0.66 0 1 0 C1.90944086 8.52179771 1.90944086 8.52179771 -0.23046875 12 C-1.8125 13.625 -1.8125 13.625 -5 16 C-5.99 16 -6.98 16 -8 16 C-8 14.02 -8 12.04 -8 10 C-7.21625 10.20625 -6.4325 10.4125 -5.625 10.625 C-4.75875 10.74875 -3.8925 10.8725 -3 11 C-0.60236815 8.60236815 -0.65719414 7.66726502 -0.375 4.375 C-0.26285156 3.14910156 -0.26285156 3.14910156 -0.1484375 1.8984375 C-0.09945312 1.27195313 -0.05046875 0.64546875 0 0 Z " fill="#60352D" transform="translate(73,34)"/>
<path d="M0 0 C0.66 0.33 1.32 0.66 2 1 C-0.32216997 5.51533049 -2.98560245 8.01055501 -7 11 C-7.66 11 -8.32 11 -9 11 C-8.75 8.125 -8.75 8.125 -8 5 C-6.1875 3.8125 -6.1875 3.8125 -4 3 C-2.64886795 2.02418241 -1.31053056 1.02970259 0 0 Z " fill="#348958" transform="translate(101,9)"/>
<path d="M0 0 C-0.8125 2.4375 -0.8125 2.4375 -2 5 C-2.99 5.33 -3.98 5.66 -5 6 C-5 7.98 -5 9.96 -5 12 C-5.99 11.67 -6.98 11.34 -8 11 C-7.71915428 6.97454466 -7.21634296 5.25517374 -4.5625 2.125 C-2 0 -2 0 0 0 Z " fill="#052936" transform="translate(104,28)"/>
<path d="M0 0 C1.32 0 2.64 0 4 0 C4.33 0.99 4.66 1.98 5 3 C4.67 3.33 4.34 3.66 4 4 C3.76807135 5.51469448 3.58784762 7.03754562 3.4375 8.5625 C3.35371094 9.38878906 3.26992187 10.21507812 3.18359375 11.06640625 C3.12300781 11.70449219 3.06242187 12.34257812 3 13 C2.01 13.33 1.02 13.66 0 14 C0.14084796 12.20793453 0.28783701 10.41635083 0.4375 8.625 C0.51871094 7.62726562 0.59992188 6.62953125 0.68359375 5.6015625 C1 3 1 3 2 1 C1.34 0.67 0.68 0.34 0 0 Z " fill="#307E65" transform="translate(113,5)"/>
<path d="M0 0 C0.33 0 0.66 0 1 0 C1.33663062 3.70293685 1.47736015 5.39534381 -0.875 8.375 C-3 10 -3 10 -5 10 C-4.49396008 7.83125748 -4.00016187 6.00032373 -3 4 C-2.34 4 -1.68 4 -1 4 C-0.67 2.68 -0.34 1.36 0 0 Z " fill="#1E9258" transform="translate(91,20)"/>
<path d="M0 0 C1.32 1.32 2.64 2.64 4 4 C3.34 4 2.68 4 2 4 C2.33 6.31 2.66 8.62 3 11 C1.68 10.34 0.36 9.68 -1 9 C-1.125 2.25 -1.125 2.25 0 0 Z " fill="#0C081C" transform="translate(149,59)"/>
<path d="M0 0 C3.53790403 3.69172595 3.59115883 7.09390595 4 12 C3.01 11.67 2.02 11.34 1 11 C-0.28317892 7.15046324 -0.06643637 4.05261865 0 0 Z " fill="#0A193B" transform="translate(117,10)"/>
<path d="M0 0 C1.81325551 0.11351517 3.62563357 0.24112961 5.4375 0.375 C6.95150391 0.47941406 6.95150391 0.47941406 8.49609375 0.5859375 C9.73552734 0.79089844 9.73552734 0.79089844 11 1 C11.33 1.66 11.66 2.32 12 3 C11.39671875 2.96519531 10.7934375 2.93039063 10.171875 2.89453125 C5.07474512 2.6485551 5.07474512 2.6485551 0.4375 4.5 C-0.036875 4.995 -0.51125 5.49 -1 6 C-0.67 4.02 -0.34 2.04 0 0 Z " fill="#6D2124" transform="translate(69,17)"/>
<path d="M0 0 C0 0.99 0 1.98 0 3 C0.99 3.66 1.98 4.32 3 5 C0 7 0 7 -3 7 C-3.33 6.01 -3.66 5.02 -4 4 C-2.68 2.68 -1.36 1.36 0 0 Z " fill="#09051F" transform="translate(89,64)"/>
<path d="M0 0 C1.46726798 3.81489674 0.43336419 6.29011622 -1 10 C-1.66 9.34 -2.32 8.68 -3 8 C-1.125 1.125 -1.125 1.125 0 0 Z " fill="#12112E" transform="translate(134,25)"/>
</svg>
